<?xml version="1.0" standalone="no"?>
<!DOCTYPE svg PUBLIC "-//W3C//DTD SVG 20010904//EN"
 "http://www.w3.org/TR/2001/REC-SVG-20010904/DTD/svg10.dtd">
<svg version="1.0" xmlns="http://www.w3.org/2000/svg"
 width="2852.000000pt" height="1704.000000pt" viewBox="0 0 2852.000000 1704.000000"
 preserveAspectRatio="xMidYMid meet">

<g transform="translate(0.000000,1704.000000) scale(0.100000,-0.100000)"
fill="#000000" stroke="none">
<path d="M2562 16778 c-13 -13 -16 -47 -4 -64 14 -23 49 -25 73 -5 20 16 22
23 14 47 -8 22 -18 30 -40 32 -17 2 -36 -3 -43 -10z"/>
<path d="M27766 16742 c-3 -6 -1 -14 5 -17 14 -9 20 -2 10 14 -6 8 -11 9 -15
3z"/>
<path d="M28029 16714 c-8 -10 -9 -15 -4 -12 6 4 12 -3 12 -15 2 -18 0 -19 -7
-6 -21 36 -114 35 -123 -1 -4 -16 -10 -18 -35 -11 -16 5 -40 14 -53 20 l-24
12 24 -21 c13 -11 31 -25 39 -29 19 -11 7 -31 -19 -31 -31 0 -22 -54 9 -58 19
-3 22 1 22 32 0 38 14 56 24 30 3 -9 6 -30 6 -48 0 -45 26 -79 56 -73 13 2 24
1 24 -3 0 -4 13 -6 30 -5 16 1 27 -2 24 -6 -2 -4 4 -13 15 -18 17 -10 19 -7
17 26 -2 40 15 63 45 63 27 0 27 56 -1 63 -11 3 -29 26 -43 57 -22 47 -25 50
-38 34z m-45 -75 c17 -15 -3 -23 -29 -11 -32 15 -34 36 -2 27 12 -4 26 -11 31
-16z m93 -42 c-3 -36 -13 -57 -29 -57 -10 0 -4 72 8 92 11 17 23 -3 21 -35z
m-123 6 c11 4 16 1 16 -11 0 -12 -8 -17 -30 -17 -27 0 -30 3 -30 29 0 28 1 28
14 11 8 -11 19 -16 30 -12z m-94 -13 c0 -5 -4 -10 -10 -10 -5 0 -10 5 -10 10
0 6 5 10 10 10 6 0 10 -4 10 -10z m250 0 c0 -5 -5 -10 -11 -10 -5 0 -7 5 -4
10 3 6 8 10 11 10 2 0 4 -4 4 -10z m-105 -10 c-3 -5 -10 -10 -16 -10 -5 0 -9
5 -9 10 0 6 7 10 16 10 8 0 12 -4 9 -10z m-40 -28 c-3 -3 -11 0 -18 7 -9 10
-8 11 6 5 10 -3 15 -9 12 -12z"/>
<path d="M27760 16694 c0 -25 -33 -74 -50 -74 -9 0 -15 -9 -15 -25 0 -18 5
-25 20 -25 17 0 17 2 5 10 -10 6 -11 13 -5 18 6 4 18 20 28 35 10 15 21 26 25
23 5 -3 14 -1 22 5 13 7 12 9 -2 9 -10 0 -18 5 -18 10 0 6 5 10 11 10 5 0 7 5
4 10 -10 15 -25 12 -25 -6z"/>
<path d="M28144 16666 c1 -21 4 -23 21 -13 18 10 18 11 2 15 -9 2 -15 8 -12
13 4 5 2 9 -3 9 -6 0 -9 -11 -8 -24z"/>
<path d="M783 16608 c-27 -6 -50 -19 -63 -35 l-20 -26 0 32 c0 30 -1 31 -45
31 l-45 0 0 -185 0 -185 45 0 45 0 0 104 c0 56 5 118 11 135 19 54 84 67 124
26 24 -23 25 -30 25 -145 l0 -120 44 0 44 0 3 113 c4 124 18 161 64 173 31 8
81 -12 91 -34 4 -10 9 -70 12 -134 l4 -118 46 0 45 0 -5 133 c-5 137 -14 172
-56 210 -47 43 -136 39 -189 -8 l-28 -24 -26 25 c-34 32 -74 42 -126 32z"/>
<path d="M1418 16609 c-109 -17 -173 -114 -147 -227 13 -60 51 -109 103 -133
55 -25 93 -24 152 6 27 14 50 25 52 25 1 0 2 -9 2 -20 0 -17 7 -20 45 -20 l45
0 0 185 0 185 -45 0 c-38 0 -45 -3 -45 -20 0 -24 -4 -25 -34 -5 -37 24 -77 32
-128 24z m102 -96 c14 -9 30 -24 37 -33 28 -35 6 -127 -36 -150 -11 -5 -38
-10 -61 -10 -81 0 -125 82 -85 160 8 16 23 34 32 39 28 16 86 13 113 -6z"/>
<path d="M1823 16609 c-45 -13 -83 -62 -83 -108 0 -50 37 -84 119 -109 35 -10
67 -26 72 -34 26 -46 -79 -75 -109 -30 -21 31 -92 32 -92 1 0 -46 87 -99 160
-99 49 1 110 37 126 76 30 72 -5 120 -114 153 -62 19 -72 25 -72 45 0 43 77
53 93 12 4 -11 19 -16 46 -16 48 0 53 6 36 46 -21 50 -116 83 -182 63z"/>
<path d="M2225 16610 c-55 -8 -97 -35 -129 -84 -24 -36 -27 -49 -24 -107 3
-52 9 -75 31 -108 53 -79 168 -103 239 -51 34 25 38 25 38 0 0 -17 7 -20 45
-20 l45 0 0 185 0 185 -45 0 c-38 0 -45 -3 -45 -20 0 -24 -4 -25 -34 -5 -35
23 -76 32 -121 25z m102 -100 c83 -50 44 -190 -53 -190 -75 0 -123 54 -110
124 15 77 93 109 163 66z"/>
<path d="M28208 16603 c-6 -22 1 -43 13 -43 5 0 7 12 5 26 -6 34 -12 39 -18
17z"/>
<path d="M2550 16425 l0 -185 50 0 50 0 0 185 0 185 -50 0 -50 0 0 -185z"/>
<path d="M28136 16540 c4 -8 7 -28 5 -43 -2 -23 1 -28 16 -26 10 2 24 0 30 -4
10 -6 11 -2 3 18 -6 15 -8 31 -4 36 3 5 -3 9 -13 9 -11 0 -25 6 -32 13 -11 10
-12 9 -5 -3z m34 -40 c0 -5 -5 -10 -11 -10 -5 0 -7 5 -4 10 3 6 8 10 11 10 2
0 4 -4 4 -10z"/>
<path d="M27775 16532 c-13 -5 -20 -16 -20 -34 -1 -16 3 -28 7 -28 4 0 8 9 8
20 0 11 7 20 15 20 8 0 15 7 15 15 0 8 -1 15 -2 14 -2 -1 -12 -4 -23 -7z"/>
<path d="M27880 16529 c0 -5 5 -7 10 -4 6 3 10 8 10 11 0 2 -4 4 -10 4 -5 0
-10 -5 -10 -11z"/>
<path d="M28247 16534 c-4 -4 -7 -25 -7 -46 0 -34 -6 -42 -30 -40 -3 0 -5 -12
-4 -26 1 -15 3 -33 3 -40 1 -7 6 -10 11 -7 6 4 9 14 8 22 -2 9 3 18 10 20 9 4
11 -12 7 -69 -5 -69 -4 -71 9 -43 24 49 18 253 -7 229z"/>
<path d="M27633 16514 c-6 -17 5 -34 23 -34 8 0 14 10 14 23 0 25 -28 33 -37
11z"/>
<path d="M27568 16465 c-4 -27 -3 -68 2 -90 l9 -40 -2 39 c-1 26 3 41 12 44
10 3 12 0 7 -13 -5 -15 -4 -16 9 -5 12 10 13 16 4 26 -6 8 -15 11 -20 9 -4 -3
-9 14 -11 37 l-3 43 -7 -50z"/>
<path d="M28106 16406 c9 -25 20 -46 26 -46 5 0 6 -10 3 -22 -4 -11 -7 -39 -6
-62 1 -23 2 -60 3 -84 0 -46 10 -59 26 -39 8 9 7 27 -4 62 -14 48 -14 49 10
70 23 19 45 71 25 59 -21 -13 -58 25 -61 63 -2 26 -8 39 -20 41 -16 3 -16 0
-2 -42z m64 -96 c0 -5 -2 -10 -4 -10 -3 0 -8 5 -11 10 -3 6 -1 10 4 10 6 0 11
-4 11 -10z"/>
<path d="M27693 16425 c-3 -9 -3 -19 1 -22 3 -3 1 -12 -5 -19 -8 -10 -6 -11
15 -1 17 8 21 14 13 20 -9 6 -9 10 1 14 17 7 15 23 -3 23 -9 0 -18 -7 -22 -15z"/>
<path d="M27792 16373 c-1 -13 -6 -23 -12 -23 -5 0 -12 -16 -16 -36 -5 -25 -9
-32 -15 -22 -6 9 -9 4 -9 -15 0 -15 -9 -52 -19 -82 l-20 -55 25 -17 c14 -8 28
-13 31 -9 4 3 7 37 8 74 0 46 6 75 18 94 13 18 17 40 14 70 -2 24 -4 33 -5 21z"/>
<path d="M2734 16334 c-18 -14 -18 -15 4 -4 12 6 22 13 22 15 0 8 -5 6 -26
-11z"/>
<path d="M27648 16343 c-20 -5 -25 -43 -6 -43 6 0 8 3 5 7 -4 3 0 15 10 25 9
10 14 17 12 17 -2 -1 -12 -3 -21 -6z"/>
<path d="M28028 16306 c-3 -14 -2 -30 2 -36 4 -6 6 -51 4 -99 -2 -83 -1 -88
17 -84 10 3 16 9 13 14 -3 5 1 6 9 3 8 -3 19 1 23 8 11 16 12 138 2 138 -5 0
-8 5 -8 10 0 13 -41 70 -51 70 -4 0 -9 -11 -11 -24z m46 -122 c3 -8 2 -12 -4
-9 -6 3 -10 10 -10 16 0 14 7 11 14 -7z"/>
<path d="M2740 16295 c0 -23 3 -27 10 -15 9 13 11 13 20 0 7 -12 10 -8 10 15
0 23 -3 27 -10 15 -9 -13 -11 -13 -20 0 -7 12 -10 8 -10 -15z"/>
<path d="M2711 16294 c0 -11 3 -14 6 -6 3 7 2 16 -1 19 -3 4 -6 -2 -5 -13z"/>
<path d="M27687 16253 c-4 -3 -6 -25 -6 -47 l2 -41 7 45 c8 48 7 54 -3 43z"/>
<path d="M28210 16235 c0 -8 2 -15 4 -15 2 0 6 7 10 15 3 8 1 15 -4 15 -6 0
-10 -7 -10 -15z"/>
<path d="M1660 14130 c-204 -43 -347 -250 -311 -452 38 -218 243 -366 453
-329 251 44 397 297 308 533 -38 102 -135 197 -238 233 -57 19 -156 26 -212
15z m232 -62 c73 -34 142 -103 176 -176 23 -49 27 -70 27 -152 0 -82 -4 -103
-27 -152 -34 -73 -103 -142 -176 -176 -49 -23 -70 -27 -152 -27 -82 0 -103 4
-152 27 -201 94 -270 346 -147 532 39 58 95 102 167 133 80 33 202 30 284 -9z"/>
<path d="M1723 13891 c-60 -16 -81 -68 -51 -128 21 -42 85 -47 128 -11 59 51
-1 159 -77 139z m59 -38 c22 -20 23 -61 1 -85 -34 -38 -103 -11 -103 40 0 54
62 81 102 45z"/>
<path d="M1646 13690 c-34 -17 -51 -62 -35 -92 9 -16 23 -18 122 -18 138 0
156 8 138 63 -7 19 -18 40 -25 46 -22 18 -166 19 -200 1z m190 -27 c8 -8 14
-23 14 -34 0 -18 -8 -19 -110 -19 -102 0 -110 1 -110 19 0 38 24 48 110 48 57
0 85 -4 96 -14z"/>
<path d="M5150 13895 c0 -23 4 -26 28 -23 19 2 27 9 27 23 0 14 -8 21 -27 23
-24 3 -28 0 -28 -23z"/>
<path d="M2415 13898 c-3 -8 -4 -70 -3 -139 l3 -124 28 -3 c26 -3 27 -2 27 47
0 51 0 51 33 51 47 0 97 17 113 37 23 30 17 86 -11 113 -21 19 -39 24 -105 28
-63 4 -81 2 -85 -10z m143 -50 c17 -17 15 -55 -4 -62 -9 -3 -31 -6 -50 -6 -33
0 -34 1 -34 40 0 40 0 40 38 40 21 0 43 -5 50 -12z"/>
<path d="M4022 13773 l3 -138 25 0 25 0 3 138 3 137 -31 0 -31 0 3 -137z"/>
<path d="M4230 13771 l0 -141 58 0 c127 0 162 30 162 139 0 108 -25 132 -142
139 l-78 5 0 -142z m144 73 c11 -11 16 -35 16 -79 0 -73 -11 -85 -74 -85 l-36
0 0 90 0 90 39 0 c23 0 46 -7 55 -16z"/>
<path d="M4760 13876 c0 -25 -5 -35 -20 -39 -12 -3 -20 -14 -20 -26 0 -14 6
-21 20 -21 18 0 20 -7 20 -55 0 -70 31 -108 83 -103 41 4 47 41 7 47 -32 4
-40 17 -40 69 0 40 1 42 31 42 26 0 30 3 27 23 -2 16 -11 23 -30 25 -25 3 -28
8 -28 38 0 30 -3 34 -25 34 -22 0 -25 -4 -25 -34z"/>
<path d="M5260 13770 l0 -140 25 0 25 0 0 140 0 140 -25 0 -25 0 0 -140z"/>
<path d="M2715 13828 c-44 -26 -60 -74 -44 -131 11 -41 46 -67 89 -67 39 0 90
26 90 45 0 19 -34 19 -63 0 -20 -13 -25 -13 -45 1 -43 30 -28 44 49 44 l72 0
-6 37 c-4 20 -15 45 -25 56 -23 23 -90 32 -117 15z m83 -55 c3 -21 -1 -23 -37
-23 -27 0 -41 4 -41 13 0 41 72 50 78 10z"/>
<path d="M2917 13833 c-4 -3 -7 -51 -7 -105 0 -98 0 -98 25 -98 24 0 25 2 25
64 0 72 14 96 56 96 21 0 25 4 22 23 -2 17 -8 21 -28 19 -14 -2 -30 -8 -36
-13 -8 -6 -14 -4 -18 6 -6 15 -28 20 -39 8z"/>
<path d="M3110 13827 c-17 -8 -26 -22 -28 -43 -3 -35 9 -48 63 -66 42 -14 57
-41 30 -52 -9 -3 -25 -1 -35 4 -24 13 -70 13 -70 0 0 -15 56 -40 92 -40 55 0
83 20 83 60 0 36 -14 47 -80 67 -42 12 -46 43 -6 43 16 0 33 -4 36 -10 10 -16
45 -12 45 5 0 18 -50 45 -82 45 -13 0 -34 -6 -48 -13z"/>
<path d="M3344 13831 c-69 -30 -74 -160 -7 -190 53 -24 123 -7 142 36 19 41
13 99 -12 128 -24 29 -86 42 -123 26z m75 -45 c18 -21 10 -97 -11 -110 -29
-18 -53 4 -56 53 -3 46 10 71 38 71 10 0 23 -6 29 -14z"/>
<path d="M3547 13833 c-4 -3 -7 -51 -7 -105 0 -98 0 -98 25 -98 24 0 25 2 25
65 0 52 4 69 20 85 24 24 34 25 54 4 12 -11 16 -35 16 -85 l0 -70 28 3 c26 3
27 6 30 63 2 32 1 70 -3 82 -14 56 -76 80 -122 48 -19 -13 -22 -13 -27 0 -6
15 -28 20 -39 8z"/>
<path d="M3840 13833 c-20 -7 -50 -34 -50 -45 0 -12 44 -10 57 3 15 15 57 7
61 -13 2 -11 -6 -18 -30 -23 -61 -12 -88 -27 -95 -53 -12 -51 42 -86 100 -64
21 8 33 9 35 2 2 -5 15 -10 28 -10 23 0 24 3 24 68 0 37 -3 77 -6 90 -11 38
-77 62 -124 45z m70 -122 c0 -25 -24 -43 -52 -39 -34 5 -35 34 -1 46 42 15 53
14 53 -7z"/>
<path d="M4529 13811 c-24 -25 -29 -37 -29 -78 1 -70 34 -103 103 -103 33 0
87 31 87 51 0 14 -53 10 -74 -6 -23 -17 -51 -5 -59 25 -5 19 -1 20 64 20 l69
0 0 31 c0 45 -47 89 -95 89 -27 0 -44 -8 -66 -29z m101 -32 c15 -27 10 -31
-38 -27 -36 3 -39 5 -31 26 11 29 54 30 69 1z"/>
<path d="M4960 13829 c-24 -10 -40 -26 -40 -41 0 -12 45 -9 57 3 16 16 57 7
61 -13 2 -13 -6 -19 -35 -24 -64 -11 -93 -31 -93 -63 0 -15 8 -35 18 -44 20
-18 68 -22 91 -8 9 6 21 5 31 -1 35 -22 50 -3 50 60 0 82 -14 118 -52 131 -37
13 -55 13 -88 0z m80 -118 c0 -25 -24 -43 -52 -39 -32 4 -31 40 2 49 41 12 50
10 50 -10z"/>
<path d="M5157 13834 c-4 -4 -7 -52 -7 -106 l0 -98 25 0 26 0 -3 102 c-2 83
-6 103 -18 106 -9 1 -19 0 -23 -4z"/>
<path d="M5400 13827 c-17 -8 -26 -22 -28 -43 -3 -35 9 -48 63 -66 42 -14 57
-41 30 -52 -9 -3 -25 -1 -35 4 -24 13 -70 13 -70 0 0 -15 56 -40 92 -40 55 0
83 20 83 60 0 36 -14 47 -80 67 -42 12 -46 43 -6 43 16 0 33 -4 36 -10 10 -16
45 -12 45 5 0 18 -50 45 -82 45 -13 0 -34 -6 -48 -13z"/>
<path d="M14300 13480 c0 -15 7 -20 25 -20 18 0 25 5 25 20 0 15 -7 20 -25 20
-18 0 -25 -5 -25 -20z"/>
<path d="M11792 13369 l3 -124 25 0 c22 0 25 5 28 43 3 39 5 42 32 42 93 0
138 66 86 127 -21 25 -31 28 -100 31 l-77 4 3 -123z m126 69 c29 -29 2 -68
-47 -68 -18 0 -21 6 -21 40 0 37 2 40 28 40 15 0 33 -5 40 -12z"/>
<path d="M13270 13364 c0 -124 0 -125 23 -122 21 3 22 7 25 126 l3 122 -26 0
-25 0 0 -126z"/>
<path d="M13452 13369 l3 -124 68 2 c43 1 77 7 92 17 50 33 55 153 9 197 -19
17 -39 23 -99 27 l-76 5 3 -124z m136 59 c7 -7 12 -35 12 -63 0 -61 -12 -75
-62 -75 l-38 0 0 75 0 75 38 0 c21 0 43 -5 50 -12z"/>
<path d="M13940 13455 c0 -28 -4 -35 -20 -35 -12 0 -20 -7 -20 -16 0 -9 9 -18
20 -21 16 -4 20 -14 20 -53 0 -55 19 -78 70 -82 46 -4 55 26 10 35 -28 6 -30
9 -30 52 0 41 2 45 25 45 18 0 25 5 25 20 0 15 -7 20 -25 20 -22 0 -25 4 -25
35 0 31 -3 35 -25 35 -22 0 -25 -4 -25 -35z"/>
<path d="M14402 13368 c3 -115 4 -123 23 -123 19 0 20 8 23 123 l3 122 -26 0
-26 0 3 -122z"/>
<path d="M12083 13422 c-51 -8 -83 -100 -49 -144 31 -42 107 -45 142 -7 16 18
16 19 -4 19 -12 0 -33 -5 -48 -12 -23 -11 -28 -10 -40 7 -23 31 -17 35 45 35
33 0 62 4 66 10 5 8 -19 80 -27 80 -2 0 -17 4 -33 8 -17 4 -40 6 -52 4z m45
-34 c23 -23 13 -38 -23 -38 -38 0 -44 10 -19 34 19 19 26 20 42 4z"/>
<path d="M12455 13422 c-45 -9 -71 -57 -42 -79 6 -6 29 -16 49 -22 43 -14 50
-21 38 -41 -7 -12 -15 -12 -49 0 -45 14 -61 9 -41 -14 30 -37 132 -27 145 15
10 31 -12 56 -60 68 -26 7 -45 17 -45 25 0 20 20 24 57 13 35 -11 54 -4 37 13
-15 15 -65 27 -89 22z"/>
<path d="M12655 13419 c-40 -12 -55 -34 -55 -85 0 -56 24 -84 77 -91 38 -5 45
-2 74 26 28 28 31 37 26 73 -9 65 -57 96 -122 77z m60 -84 c0 -45 -2 -50 -24
-53 -27 -4 -41 12 -41 50 0 44 10 59 39 56 24 -3 26 -6 26 -53z"/>
<path d="M13104 13418 c-42 -11 -56 -42 -17 -36 16 3 36 8 45 12 11 5 20 1 28
-13 8 -16 8 -22 -2 -25 -89 -23 -103 -31 -103 -61 0 -22 7 -33 28 -45 25 -14
30 -13 56 1 25 15 29 15 38 1 6 -10 16 -13 27 -9 16 6 18 17 14 77 -2 38 -8
74 -14 80 -18 18 -68 27 -100 18z m66 -96 c0 -15 -31 -52 -44 -52 -19 0 -36
23 -28 36 13 20 72 33 72 16z"/>
<path d="M13765 13422 c-37 -7 -65 -43 -65 -83 0 -52 8 -67 42 -85 37 -19 88
-12 113 16 18 19 17 20 -9 20 -14 0 -35 -5 -45 -12 -15 -9 -23 -9 -35 1 -33
28 -19 41 44 41 59 0 60 0 60 28 0 46 -54 84 -105 74z m55 -57 c0 -10 -11 -15
-35 -15 -38 0 -48 22 -18 39 21 11 53 -3 53 -24z"/>
<path d="M14134 13418 c-42 -11 -56 -42 -17 -36 16 3 36 8 45 12 11 5 20 1 28
-13 8 -16 8 -22 -2 -25 -89 -23 -103 -31 -103 -61 0 -22 7 -33 28 -45 25 -14
30 -13 56 1 25 15 29 15 38 1 6 -10 16 -13 27 -9 16 6 18 17 14 77 -2 38 -8
74 -14 80 -18 18 -68 27 -100 18z m66 -96 c0 -15 -31 -52 -44 -52 -19 0 -36
23 -28 36 13 20 72 33 72 16z"/>
<path d="M14555 13422 c-45 -9 -71 -57 -42 -79 6 -6 29 -16 49 -22 43 -14 50
-21 38 -41 -7 -12 -15 -12 -49 0 -45 14 -61 9 -41 -14 30 -37 132 -27 145 15
10 31 -12 56 -60 68 -26 7 -45 17 -45 25 0 20 20 24 57 13 35 -11 54 -4 37 13
-15 15 -65 27 -89 22z"/>
<path d="M12242 13333 c3 -83 4 -88 26 -91 20 -3 22 0 22 48 0 67 13 90 50 90
23 0 30 4 30 20 0 23 -38 28 -59 8 -11 -10 -14 -10 -18 0 -3 6 -16 12 -29 12
-25 0 -25 0 -22 -87z"/>
<path d="M12822 13333 c3 -86 3 -88 28 -88 24 0 25 3 28 67 2 57 6 68 23 73
33 11 48 -12 51 -78 3 -56 5 -62 26 -65 21 -3 22 0 22 72 0 54 -4 79 -16 90
-19 19 -75 21 -93 4 -11 -10 -14 -10 -18 0 -3 6 -16 12 -29 12 -25 0 -25 0
-22 -87z"/>
<path d="M14302 13333 c3 -80 5 -88 23 -88 18 0 20 8 23 88 l3 87 -26 0 -26 0
3 -87z"/>
<path d="M3800 12175 c0 -21 5 -25 30 -25 25 0 30 4 30 25 0 21 -5 25 -30 25
-25 0 -30 -4 -30 -25z"/>
<path d="M2410 12050 l0 -140 100 0 100 0 0 25 c0 24 -2 25 -70 25 l-70 0 0
35 0 35 66 0 c62 0 65 1 62 23 -3 20 -9 22 -65 25 -62 3 -63 3 -63 32 l0 30
70 0 c68 0 70 1 70 25 l0 25 -100 0 -100 0 0 -140z"/>
<path d="M2790 12143 c0 -37 -3 -44 -12 -35 -21 21 -77 14 -103 -13 -20 -20
-25 -34 -25 -78 0 -72 26 -107 79 -107 20 0 43 6 50 13 11 10 14 10 18 0 3 -7
16 -13 29 -13 l24 0 0 140 0 140 -30 0 c-29 0 -30 -1 -30 -47z m-4 -97 c3 -13
4 -37 2 -52 -2 -24 -8 -30 -32 -32 -33 -4 -46 10 -46 54 0 36 16 54 47 54 15
0 24 -7 29 -24z"/>
<path d="M3640 12156 c0 -25 -5 -35 -20 -39 -12 -3 -20 -14 -20 -26 0 -14 6
-21 20 -21 18 0 20 -7 20 -55 0 -70 29 -105 85 -105 30 0 35 3 35 24 0 19 -6
25 -27 28 -26 3 -28 7 -31 56 l-3 52 30 0 c26 0 31 4 31 25 0 21 -5 25 -30 25
-28 0 -30 3 -30 35 0 32 -2 35 -30 35 -27 0 -30 -3 -30 -34z"/>
<path d="M12645 12078 c-17 -28 -41 -59 -54 -69 -13 -10 -19 -19 -13 -19 6 0
17 7 26 15 23 23 28 0 6 -26 -13 -16 -22 -20 -27 -13 -12 16 -107 44 -150 44
-59 -1 -124 -16 -134 -31 -5 -8 -8 -24 -6 -36 2 -13 -1 -30 -8 -39 -10 -14
-19 -15 -66 -5 -118 25 -202 81 -250 167 -21 36 -35 51 -45 47 -16 -6 -17 -27
-4 -58 5 -12 9 -14 9 -6 1 11 7 9 21 -7 11 -12 20 -26 20 -32 0 -5 6 -10 13
-10 6 0 25 -19 42 -41 24 -33 100 -89 128 -95 4 -1 10 -3 15 -4 4 -1 10 -2 15
-1 4 0 7 -7 7 -17 0 -31 -41 -61 -87 -64 l-42 -3 3 -60 c2 -51 -1 -65 -22 -95
l-25 -35 26 24 c24 22 30 23 51 12 13 -8 28 -11 34 -7 12 7 68 -20 75 -37 2
-6 3 -24 1 -39 -3 -31 16 -38 36 -13 7 8 18 15 25 15 8 0 15 6 18 13 2 6 12
-5 21 -25 28 -58 85 -84 145 -64 33 11 50 -8 27 -33 -10 -11 -13 -21 -7 -25
12 -8 51 32 51 51 0 19 12 16 40 -10 26 -24 130 -87 165 -101 17 -6 17 -4 -4
18 -15 15 -19 26 -12 26 7 0 11 6 8 14 -3 7 -1 18 5 24 7 7 6 16 -1 30 -6 11
-11 30 -11 41 0 10 -5 21 -12 23 -7 3 4 21 27 45 31 32 49 42 82 46 39 5 45 2
78 -34 32 -36 48 -89 26 -89 -5 0 -6 -15 -3 -32 3 -18 6 -48 6 -67 -1 -26 2
-30 10 -20 16 21 80 17 105 -5 44 -40 63 -82 55 -123 -9 -42 -8 -53 8 -92 6
-14 10 -30 9 -34 -3 -15 59 34 70 55 6 11 8 33 5 49 -8 41 11 46 22 6 6 -23 5
-54 -4 -98 -8 -35 -15 -97 -18 -137 l-4 -73 26 3 c48 6 56 54 57 313 0 215 -1
234 -23 298 -26 73 -42 86 -43 35 0 -18 -2 -40 -3 -48 -2 -8 -6 -46 -10 -85
-3 -38 -8 -80 -12 -91 -6 -23 -53 -50 -64 -37 -32 40 -60 84 -64 104 -14 59
-14 81 -1 106 17 33 11 42 -12 20 -14 -12 -23 -13 -36 -5 -10 5 -27 8 -37 5
-26 -7 -98 96 -82 116 6 7 9 31 6 53 -3 31 1 49 25 85 34 55 105 96 130 76 13
-10 13 -8 -1 13 -11 17 -24 24 -39 22 -38 -4 -51 5 -40 27 8 14 7 22 -3 30
-17 14 -49 3 -39 -13 4 -6 8 -18 8 -26 0 -8 4 -20 8 -27 17 -27 -48 -123 -83
-123 -28 0 -126 112 -131 150 -2 14 -16 44 -30 68 -32 51 -28 78 12 87 16 4
31 11 34 16 4 5 -6 4 -21 -1 -33 -13 -40 -8 -20 13 12 11 12 16 3 20 -7 3 -25
-17 -42 -45z m1 -143 c10 -24 -6 -38 -22 -18 -7 10 -14 21 -14 26 0 13 31 7
36 -8z m-223 -73 c63 -20 97 -43 97 -67 0 -8 -9 -15 -21 -15 -34 0 -56 -17
-54 -42 1 -13 3 -31 4 -40 0 -9 8 -23 16 -31 12 -13 11 -15 -10 -19 -13 -3
-30 -1 -37 3 -7 5 -23 9 -36 9 -14 0 -21 4 -16 11 4 8 0 8 -15 0 -15 -9 -21
-21 -21 -46 0 -41 -11 -45 -30 -10 -14 26 -7 132 10 149 7 7 10 4 10 -7 0 -9
3 -17 8 -18 39 -4 68 -12 72 -19 10 -16 27 4 34 40 6 35 6 35 -41 47 -44 10
-50 9 -70 -10 -13 -12 -23 -15 -23 -8 0 6 6 14 14 17 8 3 22 21 31 40 9 19 17
34 18 34 1 0 28 -8 60 -18z m315 -63 c13 -19 19 -35 13 -37 -6 -2 -11 -10 -11
-18 0 -8 -4 -14 -9 -14 -19 0 -18 -41 0 -65 23 -28 18 -44 -30 -89 -41 -39
-56 -25 -55 52 0 71 20 176 34 180 5 2 10 10 10 19 0 23 23 10 48 -28z m-485
-5 c-1 -5 5 -16 12 -25 11 -11 12 -23 5 -50 -9 -33 -9 -46 6 -112 4 -22 1 -29
-18 -36 -19 -8 -27 -5 -47 17 -14 15 -28 26 -31 25 -4 -1 -5 9 -2 22 2 14 7
25 11 25 10 0 11 39 1 45 -5 3 -7 12 -4 19 3 8 1 17 -5 20 -11 7 1 49 21 73 9
11 15 11 32 0 12 -8 20 -18 19 -23z m114 -20 c-3 -3 -12 -4 -19 -1 -8 3 -5 6
6 6 11 1 17 -2 13 -5z m-217 -80 c0 -19 -28 -30 -42 -16 -8 8 -8 15 1 26 14
17 41 10 41 -10z m355 5 c4 -6 13 -8 21 -5 21 8 29 -21 14 -52 l-12 -27 -24
28 c-13 16 -24 37 -24 48 0 21 15 26 25 8z m315 -14 c0 -27 -6 -30 -29 -16
-17 11 -7 41 14 41 9 0 15 -9 15 -25z m-226 -10 c-4 -8 -8 -15 -10 -15 -2 0
-4 7 -4 15 0 8 4 15 10 15 5 0 7 -7 4 -15z m-179 -55 c3 -5 15 -10 27 -10 17
0 18 -2 8 -15 -19 -22 -64 -18 -86 8 -10 12 -12 16 -4 10 19 -17 31 -16 24 2
-7 17 21 21 31 5z m579 -159 c9 -14 -4 -41 -19 -41 -17 0 -38 27 -30 40 8 12
42 13 49 1z m-344 -15 c0 -8 -10 -13 -25 -13 -25 0 -31 7 -18 20 12 12 43 7
43 -7z m518 -241 c4 -20 -15 -36 -35 -28 -17 6 -17 40 0 46 19 8 32 2 35 -18z"/>
<path d="M2903 12104 c-12 -31 4 -154 22 -174 20 -22 74 -27 106 -10 13 8 19
7 19 0 0 -6 12 -10 28 -8 l27 3 0 100 0 100 -26 3 c-26 3 -27 2 -31 -69 -3
-54 -8 -74 -22 -84 -40 -30 -66 11 -66 101 0 51 -1 54 -25 54 -14 0 -28 -7
-32 -16z"/>
<path d="M3179 12091 c-23 -23 -29 -38 -29 -71 0 -76 31 -109 103 -110 38 0
53 5 73 25 14 14 24 31 21 38 -6 21 -45 19 -66 -2 -25 -25 -35 -26 -55 -5 -16
16 -21 59 -10 88 8 20 60 21 68 1 7 -18 66 -21 66 -2 -1 35 -52 67 -105 67
-27 0 -44 -8 -66 -29z"/>
<path d="M3425 12108 c-21 -12 -35 -28 -35 -40 0 -12 48 -9 69 4 22 13 51 5
51 -15 0 -9 -16 -17 -42 -21 -81 -13 -113 -55 -76 -101 14 -19 29 -25 57 -25
20 0 42 5 48 11 8 8 13 8 17 0 4 -6 18 -11 32 -11 24 0 24 2 24 84 0 79 -2 86
-26 105 -29 23 -87 27 -119 9z m75 -143 c-14 -17 -56 -20 -65 -5 -10 16 13 38
43 42 30 3 40 -15 22 -37z"/>
<path d="M3800 12015 l0 -106 28 3 27 3 0 100 0 100 -27 3 -28 3 0 -106z"/>
<path d="M3929 12091 c-23 -23 -29 -38 -29 -71 0 -44 13 -77 39 -97 23 -17
102 -16 128 2 53 37 48 154 -7 182 -45 23 -98 16 -131 -16z m99 -23 c16 -16
16 -90 0 -106 -18 -18 -46 -14 -58 7 -32 60 16 141 58 99z"/>
<path d="M4150 12015 l0 -105 30 0 30 0 0 64 c0 83 6 96 40 96 34 0 40 -13 40
-96 l0 -64 30 0 30 0 0 79 c0 64 -4 83 -21 105 -22 28 -64 35 -99 16 -13 -7
-21 -7 -25 0 -3 5 -17 10 -31 10 -24 0 -24 0 -24 -105z"/>
<path d="M11912 12010 c-6 -10 -15 -38 -18 -62 -7 -43 -49 -118 -66 -118 -5 0
-6 -4 -3 -10 3 -5 1 -10 -4 -10 -6 0 -11 -6 -11 -14 0 -10 -10 -14 -30 -14
-16 1 -36 -4 -43 -10 -8 -7 -17 -8 -22 -4 -4 4 -3 -2 3 -13 23 -45 18 -80 -20
-131 -20 -27 -42 -62 -49 -78 -11 -23 -17 -27 -41 -22 -24 5 -32 1 -48 -26
-13 -22 -16 -37 -10 -48 5 -10 6 -20 3 -24 -3 -3 -1 -6 6 -6 9 0 9 -5 0 -22
-10 -19 -10 -21 2 -12 20 15 69 16 87 2 13 -11 14 -11 7 1 -4 8 -10 38 -12 67
-4 60 15 109 66 163 25 26 34 30 49 22 15 -8 25 -6 41 8 17 15 21 29 20 68 -2
38 4 60 25 95 37 64 52 75 74 55 13 -11 20 -12 29 -4 32 32 43 38 43 26 0 -7
2 -10 5 -7 3 3 -1 18 -10 34 -8 16 -15 23 -15 17 0 -7 -11 -13 -25 -13 -15 0
-25 6 -25 14 0 16 27 29 41 20 12 -7 11 7 -1 26 -5 8 -10 11 -11 5 0 -5 -6 2
-13 17 -11 26 -12 26 -24 8z m-107 -314 c0 -22 -14 -29 -34 -17 -19 12 -6 43
16 39 10 -2 18 -12 18 -22z m-173 -250 c4 -17 1 -23 -11 -22 -24 4 -39 35 -21
46 18 11 27 6 32 -24z"/>
<path d="M11637 11912 c-21 -23 -21 -32 -3 -32 7 0 16 10 19 22 8 29 4 32 -16
10z"/>
<path d="M13070 11816 c0 -3 7 -21 16 -40 15 -31 15 -36 1 -66 -14 -28 -15
-35 -2 -59 13 -26 12 -30 -15 -59 -16 -18 -25 -32 -21 -32 4 0 18 11 31 25 12
13 26 22 31 20 11 -8 37 5 43 21 3 7 -5 23 -17 35 -21 20 -21 21 -4 34 16 11
17 17 6 37 -12 24 -69 92 -69 84z"/>
<path d="M11472 11679 c-27 -47 -25 -57 7 -30 15 13 21 28 19 45 -3 25 -4 24
-26 -15z"/>
<path d="M11992 11555 c-11 -14 -23 -21 -26 -16 -4 5 -20 5 -42 -2 -29 -9 -37
-8 -45 4 -10 14 -9 5 6 -49 3 -9 1 -32 -4 -50 -7 -21 -6 -32 1 -32 6 0 2 -12
-7 -27 l-18 -28 22 19 c11 11 24 16 28 13 3 -4 13 2 20 13 11 16 12 24 3 35
-17 20 -3 37 28 33 24 -3 27 0 28 29 1 18 9 43 18 57 21 33 13 33 -12 1z"/>
<path d="M12256 11506 c-7 -30 2 -56 29 -78 31 -27 37 -21 9 8 -20 20 -25 33
-22 60 5 39 -7 46 -16 10z"/>
<path d="M11385 11437 c-21 -97 -24 -259 -6 -365 7 -40 16 -71 19 -68 3 4 5
54 4 112 -1 100 0 105 21 113 25 10 60 -4 55 -21 -3 -7 -12 -16 -21 -22 -13
-8 -20 -7 -27 4 -6 9 -10 10 -10 3 0 -13 60 -76 67 -69 3 2 -1 15 -8 27 -9 17
-9 24 0 27 6 2 11 8 11 14 0 6 8 17 18 24 9 7 12 14 6 14 -7 0 -19 11 -28 24
-14 23 -14 27 10 63 l26 38 -42 -45 c-41 -43 -42 -44 -53 -23 -7 13 -11 62
-10 122 1 55 -2 103 -6 106 -5 2 -16 -33 -26 -78z"/>
<path d="M12428 11393 c6 -2 18 -2 25 0 6 3 1 5 -13 5 -14 0 -19 -2 -12 -5z"/>
<path d="M12330 11341 c0 -12 5 -21 10 -21 6 0 10 6 10 14 0 8 -4 18 -10 21
-5 3 -10 -3 -10 -14z"/>
<path d="M11715 11297 c12 -19 14 -31 7 -40 -13 -15 -13 -19 -2 -58 8 -27 5
-36 -35 -85 -25 -30 -45 -59 -45 -64 0 -5 -10 -12 -22 -16 -23 -8 -30 -9 -55
-12 -7 -1 -13 -11 -13 -22 0 -11 -6 -20 -12 -20 -10 0 -10 -2 0 -9 8 -4 12
-19 10 -32 -3 -21 1 -24 34 -24 21 0 38 4 38 8 0 5 5 5 10 2 6 -3 10 -1 10 5
0 6 -12 9 -27 8 -22 -2 -29 2 -31 20 -5 30 26 42 45 16 13 -18 14 -17 8 7 -7
27 14 73 61 135 18 23 35 33 62 37 20 2 42 0 48 -4 11 -9 12 -3 13 89 1 24 6
53 12 65 10 22 10 22 -10 -1 -11 -12 -22 -18 -26 -13 -3 6 -15 7 -28 2 -17 -7
-28 -4 -46 13 l-24 21 18 -28z m91 -78 c10 -17 -23 -46 -37 -32 -7 7 -9 19 -6
27 7 18 33 21 43 5z"/>
<path d="M12781 11298 c7 -12 27 -63 44 -112 16 -49 36 -92 44 -94 9 -3 11 0
7 9 -4 8 4 1 18 -14 26 -28 36 -54 16 -42 -5 3 -10 -1 -10 -10 0 -12 -5 -15
-16 -11 -13 5 -14 3 -7 -6 18 -22 21 -77 6 -83 -8 -2 -12 -9 -8 -14 3 -5 -4
-16 -15 -24 -18 -12 -18 -15 -5 -20 8 -4 15 -17 15 -30 0 -13 7 -46 15 -74 11
-37 13 -63 6 -99 -5 -27 -6 -53 -1 -59 12 -16 3 -127 -12 -136 -8 -5 -8 -9 -2
-9 6 0 34 18 61 40 l51 40 -15 42 c-7 24 -24 83 -38 132 -21 80 -22 93 -10
117 16 30 70 45 94 25 12 -9 12 -8 2 12 -8 16 -9 27 -2 35 5 7 11 31 14 53 2
23 14 57 27 75 l23 34 -32 -30 c-32 -30 -32 -30 -62 -12 -17 9 -36 17 -44 17
-19 0 -75 91 -66 108 4 7 4 39 -1 70 -5 30 -7 61 -4 67 3 8 -9 12 -31 13 -20
1 -44 4 -55 8 -18 5 -19 4 -7 -18z m207 -347 c-2 -9 -11 -17 -21 -19 -21 -4
-35 27 -17 38 19 12 42 0 38 -19z m-78 -58 c0 -20 -16 -8 -23 17 -4 17 -3 19
9 9 8 -6 14 -18 14 -26z"/>
<path d="M11976 11173 c-3 -21 -6 -54 -6 -73 0 -41 -14 -60 -44 -60 -13 0 -17
-3 -9 -8 9 -5 5 -28 -14 -86 -17 -52 -28 -74 -33 -65 -5 7 -7 16 -4 20 2 4 0
10 -5 13 -5 3 -12 -16 -15 -42 -10 -65 -16 -83 -27 -77 -5 3 -6 -1 -3 -9 3 -9
10 -16 15 -16 6 0 4 -10 -2 -22 -7 -13 -14 -36 -16 -52 -2 -16 -12 -48 -22
-70 -10 -23 -27 -64 -38 -92 l-20 -51 46 -31 c80 -53 87 -55 104 -29 14 22 34
90 44 155 5 32 4 33 -16 23 -19 -11 -21 -9 -21 21 0 29 11 104 29 188 4 19 12
34 19 33 7 -2 12 2 12 8 0 6 6 9 13 6 15 -5 34 100 44 237 5 57 3 68 -9 64
-11 -5 -13 1 -10 23 6 43 -4 35 -12 -8z"/>
<path d="M12663 11005 c2 -11 8 -29 12 -40 6 -17 5 -17 -9 3 -23 30 -61 30
-53 0 3 -11 -1 -37 -9 -56 -17 -41 -18 -65 -2 -37 11 19 11 19 19 0 13 -34 10
-89 -6 -113 -15 -20 -15 -21 1 -15 16 6 17 -1 11 -81 -4 -54 -12 -98 -22 -112
-9 -13 -11 -23 -5 -22 15 4 39 -67 29 -84 -5 -7 -9 -37 -9 -65 l0 -53 53 21
c28 11 72 32 97 45 l45 25 0 57 c-1 32 -5 63 -9 70 -4 7 -5 21 -1 31 3 10 7
62 8 115 3 85 1 96 -14 96 -11 0 -23 13 -30 35 -7 19 -17 35 -22 35 -4 0 -6 4
-3 9 3 5 0 11 -7 14 -7 2 -23 31 -36 63 -24 60 -48 97 -38 59z m54 -238 c-5
-16 -24 -19 -25 -5 0 7 -3 24 -7 38 l-7 25 22 -24 c11 -13 19 -29 17 -34z m-3
-93 c3 -8 2 -12 -4 -9 -6 3 -10 10 -10 16 0 14 7 11 14 -7z m16 -38 c0 -7 -6
-19 -14 -25 -11 -9 -15 -8 -20 5 -3 9 -4 20 0 25 8 14 34 11 34 -5z m24 -25
c7 -11 -18 -33 -27 -24 -4 3 -7 0 -7 -7 0 -7 -3 -11 -6 -8 -6 7 17 48 28 48 4
0 9 -4 12 -9z m-14 -57 c0 -8 -5 -12 -10 -9 -6 4 -8 11 -5 16 9 14 15 11 15
-7z m-15 -110 c-3 -30 -11 -54 -17 -54 -6 0 -8 10 -4 25 4 14 9 46 13 73 9 63
17 24 8 -44z"/>
<path d="M11740 10857 c0 -9 -12 -27 -27 -41 -25 -23 -26 -30 -28 -128 -1 -57
-5 -113 -9 -125 -4 -12 -2 -24 4 -28 5 -3 10 0 10 7 0 48 24 194 41 252 11 37
18 71 15 74 -3 3 -6 -2 -6 -11z"/>
<path d="M13247 10773 c-4 -3 0 -15 9 -25 13 -14 20 -15 31 -7 10 9 10 15 2
25 -12 15 -31 18 -42 7z"/>
<path d="M13162 10687 c-34 -34 -62 -70 -62 -80 0 -33 36 -16 98 46 60 61 62
64 44 80 -17 16 -21 13 -80 -46z m28 -32 c-49 -49 -80 -68 -80 -48 0 4 26 33
57 65 38 39 61 54 67 48 7 -7 -8 -29 -44 -65z"/>
<path d="M3090 10455 c0 -21 5 -25 30 -25 25 0 30 4 30 25 0 21 -5 25 -30 25
-25 0 -30 -4 -30 -25z"/>
<path d="M2410 10329 l0 -140 33 3 c31 3 32 5 35 51 l3 47 40 0 c45 0 94 21
103 45 8 21 8 69 0 90 -12 29 -60 45 -139 45 l-75 0 0 -141z m154 69 c18 -29
-4 -53 -53 -56 l-41 -3 0 41 0 41 41 -3 c27 -2 46 -9 53 -20z"/>
<path d="M3690 10435 c0 -28 -4 -35 -20 -35 -15 0 -20 -7 -20 -25 0 -18 5 -25
20 -25 18 0 20 -7 20 -55 0 -70 29 -105 85 -105 30 0 35 3 35 24 0 19 -6 25
-27 28 -26 3 -28 7 -31 55 -3 50 -2 52 25 55 39 4 40 42 1 46 -25 3 -28 8 -28
38 0 31 -2 34 -30 34 -28 0 -30 -3 -30 -35z"/>
<path d="M2674 10387 c-3 -8 -4 -54 -2 -103 3 -89 3 -89 31 -92 27 -3 27 -3
27 55 0 68 13 91 55 95 22 2 31 9 33 26 4 28 -16 36 -54 22 -20 -8 -30 -8 -32
-1 -5 16 -52 13 -58 -2z"/>
<path d="M2880 10387 c-54 -27 -59 -145 -7 -182 26 -18 105 -19 128 -2 26 20
39 53 39 97 0 80 -84 125 -160 87z m84 -43 c31 -30 14 -114 -22 -114 -29 0
-42 21 -42 65 0 60 30 83 64 49z"/>
<path d="M3088 10283 c-3 -115 -4 -118 -26 -121 -17 -3 -22 -9 -20 -25 3 -18
9 -22 38 -19 60 4 70 27 70 163 l0 119 -30 0 -29 0 -3 -117z"/>
<path d="M3237 10389 c-53 -31 -60 -140 -10 -179 35 -27 102 -27 137 1 14 11
26 25 26 30 0 13 -54 11 -67 -2 -18 -18 -58 -7 -61 19 -3 21 0 22 62 22 l66 0
0 31 c0 46 -47 89 -97 89 -21 0 -46 -5 -56 -11z m81 -41 c23 -23 13 -38 -23
-38 -27 0 -35 4 -35 18 0 10 3 22 7 25 10 11 38 8 51 -5z"/>
<path d="M3475 10388 c-34 -20 -44 -41 -45 -96 0 -43 5 -57 25 -77 40 -41 134
-31 163 16 7 11 10 24 7 29 -10 15 -55 12 -61 -5 -8 -20 -42 -29 -59 -15 -20
16 -19 84 1 104 16 16 45 9 59 -14 8 -13 52 -13 60 0 4 6 -7 24 -24 40 -23 23
-38 30 -68 30 -21 0 -47 -6 -58 -12z"/>
<path d="M3872 10388 c-12 -6 -25 -21 -28 -34 -9 -36 12 -62 64 -77 27 -8 47
-20 47 -28 0 -17 -43 -25 -58 -10 -16 16 -57 14 -57 -3 0 -25 42 -46 90 -46
57 0 90 22 90 59 0 35 -15 48 -71 64 -23 7 -44 18 -47 25 -6 18 28 27 49 14
26 -17 59 -15 59 2 0 38 -86 59 -138 34z"/>
<path d="M11710 9475 c0 -87 3 -105 15 -105 12 0 15 18 15 105 0 87 -3 105
-15 105 -12 0 -15 -18 -15 -105z"/>
<path d="M11790 9475 c0 -87 3 -105 15 -105 12 0 15 18 15 105 0 87 -3 105
-15 105 -12 0 -15 -18 -15 -105z"/>
<path d="M11390 9470 c0 -82 3 -100 15 -100 11 0 15 11 15 40 0 39 1 40 35 40
24 0 35 5 35 15 0 10 -11 15 -35 15 -32 0 -35 2 -35 30 0 28 2 30 40 30 29 0
40 4 40 15 0 12 -13 15 -55 15 l-55 0 0 -100z"/>
<path d="M11940 9471 c0 -82 3 -101 15 -101 11 0 15 18 17 77 l3 77 45 -75
c32 -52 52 -75 68 -77 22 -3 22 -1 22 97 0 82 -3 101 -15 101 -11 0 -15 -18
-17 -77 l-3 -77 -46 75 c-31 50 -52 75 -67 77 -21 3 -22 0 -22 -97z"/>
<path d="M11532 9454 c3 -42 9 -69 19 -75 20 -13 63 -11 77 3 9 9 12 9 12 0 0
-7 5 -12 10 -12 6 0 10 32 10 75 0 60 -3 75 -15 75 -12 0 -15 -13 -15 -55 0
-45 -3 -56 -22 -66 -30 -16 -48 11 -48 73 0 38 -4 48 -16 48 -14 0 -16 -10
-12 -66z"/>
<path d="M12170 9506 c0 -9 11 -13 32 -12 23 1 33 -4 36 -16 3 -14 -3 -18 -23
-18 -39 0 -65 -18 -65 -43 0 -30 18 -47 50 -47 14 0 31 5 38 12 9 9 12 9 12 0
0 -7 5 -12 10 -12 14 0 13 123 -2 138 -17 17 -88 16 -88 -2z m70 -85 c0 -22
-37 -38 -52 -23 -17 17 -1 42 27 42 18 0 25 -5 25 -19z"/>
<path d="M12320 9445 c0 -60 3 -75 15 -75 11 0 15 12 15 49 0 47 17 81 40 81
17 0 30 -38 30 -84 0 -34 4 -46 15 -46 11 0 15 13 15 54 0 56 17 83 45 72 11
-4 15 -21 15 -66 0 -47 3 -60 15 -60 12 0 15 14 15 63 0 36 -5 68 -12 75 -15
15 -60 16 -75 1 -8 -8 -13 -8 -17 0 -9 15 -59 14 -74 -1 -9 -9 -12 -9 -12 0 0
7 -7 12 -15 12 -12 0 -15 -15 -15 -75z"/>
<path d="M12596 9498 c-22 -31 -20 -84 4 -108 25 -25 100 -29 100 -5 0 11 -7
13 -28 9 -19 -4 -34 0 -45 11 -28 27 -20 35 33 35 46 0 50 2 50 23 0 54 -84
79 -114 35z m82 -20 c3 -15 -4 -18 -33 -18 -33 0 -35 2 -25 21 14 24 53 22 58
-3z"/>
<path d="M3544 8745 c-9 -22 9 -37 37 -33 16 2 24 10 24 23 0 26 -52 35 -61
10z"/>
<path d="M2410 8610 l0 -140 100 0 100 0 0 25 c0 24 -2 25 -70 25 l-70 0 0 35
0 35 66 0 c62 0 65 1 62 23 -3 20 -9 22 -65 25 -62 3 -63 3 -63 32 l0 30 70 0
c68 0 70 1 70 25 l0 25 -100 0 -100 0 0 -140z"/>
<path d="M11695 8713 c-28 -7 -55 -33 -55 -53 0 -28 31 -56 83 -74 34 -13 47
-23 47 -37 0 -38 -90 -45 -102 -9 -2 7 -12 11 -22 9 -17 -4 -16 -6 4 -31 18
-24 29 -28 69 -28 55 0 81 21 81 63 0 29 -23 48 -82 66 -43 14 -57 40 -32 58
26 19 51 16 74 -9 27 -29 49 -11 23 19 -19 22 -56 33 -88 26z"/>
<path d="M13197 8713 c-4 -3 -7 -21 -7 -40 0 -31 -2 -33 -21 -23 -71 38 -128
-77 -71 -143 12 -13 28 -17 69 -15 l53 2 0 113 c0 103 -5 125 -23 106z m-19
-95 c20 -20 15 -86 -8 -98 -43 -23 -81 30 -60 84 10 28 47 35 68 14z"/>
<path d="M13277 8713 c-4 -3 -7 -55 -7 -115 0 -89 3 -108 15 -108 11 0 15 12
15 51 0 61 13 89 43 89 36 0 47 -19 47 -82 0 -45 3 -58 15 -58 19 0 21 96 3
135 -14 30 -50 42 -84 26 -23 -10 -24 -9 -24 29 0 38 -8 49 -23 33z"/>
<path d="M12580 8600 c0 -89 3 -110 14 -110 10 0 16 14 18 43 l3 42 47 5 c56
6 88 30 88 65 0 45 -32 65 -105 65 l-65 0 0 -110z m124 74 c9 -8 16 -22 16
-29 0 -22 -45 -47 -77 -43 -22 2 -29 9 -31 31 -2 16 -1 35 2 43 7 19 71 18 90
-2z"/>
<path d="M2650 8670 c0 -6 13 -29 30 -51 l30 -42 -35 -47 c-19 -26 -35 -50
-35 -54 0 -3 13 -6 29 -6 21 0 36 8 51 30 12 17 24 30 28 30 4 0 16 -14 27
-30 14 -21 28 -30 48 -30 35 0 34 13 -3 60 -16 21 -30 41 -30 45 0 3 14 26 30
50 17 24 30 46 30 49 0 9 -60 7 -60 -1 -1 -5 -10 -19 -21 -32 l-20 -25 -25 32
c-24 31 -74 45 -74 22z"/>
<path d="M2892 8538 l3 -143 25 0 c23 0 25 5 30 50 3 31 8 45 13 38 5 -7 26
-13 47 -13 54 0 80 34 80 107 0 44 -5 58 -25 78 -26 27 -82 34 -102 14 -8 -8
-13 -8 -17 0 -4 6 -18 11 -32 11 l-25 0 3 -142z m134 68 c3 -13 4 -37 2 -52
-2 -24 -8 -30 -32 -32 -33 -4 -46 10 -46 54 0 36 16 54 47 54 15 0 24 -7 29
-24z"/>
<path d="M3159 8651 c-24 -25 -29 -38 -29 -79 0 -65 33 -102 92 -102 46 0 98
24 98 45 0 19 -42 20 -70 3 -23 -15 -53 -2 -58 26 -3 14 7 16 67 16 65 0 71 2
71 20 0 29 -27 78 -49 90 -39 20 -91 12 -122 -19z m100 -30 c13 -24 5 -31 -36
-31 -34 0 -43 16 -21 38 18 18 46 15 57 -7z"/>
<path d="M3370 8575 l0 -105 30 0 c30 0 30 0 30 59 0 80 5 91 46 91 31 0 34 3
34 30 0 33 -16 38 -52 19 -14 -8 -23 -8 -31 0 -6 6 -21 11 -34 11 -23 0 -23
-2 -23 -105z"/>
<path d="M3550 8575 l0 -105 25 0 25 0 0 105 0 105 -25 0 -25 0 0 -105z"/>
<path d="M3679 8651 c-24 -25 -29 -38 -29 -79 0 -65 33 -102 92 -102 46 0 98
24 98 45 0 19 -42 20 -70 3 -23 -15 -53 -2 -58 26 -3 14 7 16 67 16 65 0 71 2
71 20 0 29 -27 78 -49 90 -39 20 -91 12 -122 -19z m100 -30 c13 -24 5 -31 -36
-31 -34 0 -43 16 -21 38 18 18 46 15 57 -7z"/>
<path d="M3890 8575 l0 -105 30 0 30 0 0 64 c0 83 6 96 40 96 34 0 40 -13 40
-96 l0 -64 30 0 30 0 0 79 c0 64 -4 83 -21 105 -22 28 -64 35 -99 16 -13 -7
-21 -7 -25 0 -3 5 -17 10 -31 10 -24 0 -24 0 -24 -105z"/>
<path d="M4180 8667 c-54 -27 -59 -145 -7 -182 50 -35 157 -4 157 46 0 26 -37
25 -67 -3 -34 -32 -57 -15 -61 45 -2 37 1 48 16 56 16 8 25 6 45 -9 33 -26 67
-26 67 -1 0 48 -92 78 -150 48z"/>
<path d="M4408 8665 c-53 -29 -57 -144 -5 -180 31 -22 99 -19 131 6 14 11 26
25 26 30 0 13 -54 11 -67 -2 -18 -18 -58 -7 -61 19 -3 21 0 22 68 22 l72 0 -7
33 c-11 48 -23 67 -51 77 -35 14 -74 12 -106 -5z m90 -52 c3 -20 -1 -23 -32
-23 -28 0 -36 4 -36 18 0 26 10 33 40 30 17 -2 26 -10 28 -25z"/>
<path d="M11868 8649 c-10 -5 -18 -17 -18 -24 0 -19 5 -19 34 0 27 18 56 10
56 -15 0 -13 -11 -19 -38 -24 -21 -3 -47 -15 -57 -26 -16 -18 -17 -21 -1 -45
14 -22 22 -24 71 -22 l55 2 0 66 c0 51 -4 70 -18 82 -21 19 -58 22 -84 6z m72
-99 c0 -28 -44 -48 -65 -30 -21 17 -19 29 8 40 38 15 57 12 57 -10z"/>
<path d="M12035 8635 c-31 -30 -33 -82 -4 -119 22 -28 66 -35 88 -13 10 10 12
6 9 -17 -4 -40 -38 -52 -71 -25 -30 23 -37 24 -37 6 0 -44 84 -63 120 -27 17
17 20 33 20 120 0 91 -8 118 -25 90 -4 -7 -12 -7 -25 0 -29 16 -49 12 -75 -15z
m83 -17 c17 -17 15 -73 -2 -88 -42 -34 -92 22 -68 75 13 27 49 34 70 13z"/>
<path d="M12229 8641 c-31 -25 -16 -40 19 -19 19 12 32 14 45 7 26 -15 21 -39
-8 -39 -38 0 -85 -27 -85 -50 0 -34 27 -49 85 -48 l55 2 0 67 c0 59 -3 70 -22
83 -30 21 -61 20 -89 -3z m81 -85 c0 -16 -26 -46 -40 -46 -38 0 -53 32 -22 49
25 15 62 13 62 -3z"/>
<path d="M12390 8575 c0 -69 3 -85 15 -85 12 0 15 14 15 65 0 65 0 66 30 72
17 3 30 12 30 19 0 17 -14 18 -40 4 -13 -7 -21 -7 -25 0 -17 27 -25 2 -25 -75z"/>
<path d="M12790 8575 c0 -69 3 -85 15 -85 12 0 15 14 15 65 0 65 0 66 30 72
17 3 30 12 30 19 0 17 -14 18 -40 4 -13 -7 -21 -7 -25 0 -17 27 -25 2 -25 -75z"/>
<path d="M12928 8649 c-10 -5 -18 -17 -18 -24 0 -19 5 -19 34 0 27 18 56 10
56 -15 0 -13 -11 -19 -38 -24 -21 -3 -47 -15 -57 -26 -16 -18 -17 -21 -1 -45
14 -22 22 -24 71 -22 l55 2 0 66 c0 51 -4 70 -18 82 -21 19 -58 22 -84 6z m72
-99 c0 -28 -44 -48 -65 -30 -21 17 -19 29 8 40 38 15 57 12 57 -10z"/>
<path d="M13488 8649 c-10 -5 -18 -17 -18 -24 0 -19 5 -19 34 0 25 17 51 12
60 -11 6 -15 2 -18 -49 -29 -39 -9 -55 -23 -55 -49 0 -31 19 -46 55 -46 17 0
36 5 43 12 9 9 12 9 12 0 0 -7 7 -12 16 -12 25 0 16 137 -11 156 -22 16 -63
18 -87 3z m75 -96 c-15 -43 -49 -57 -71 -30 -19 22 8 45 55 46 17 1 21 -3 16
-16z"/>
<path d="M13644 8647 c-10 -27 1 -150 14 -155 8 -2 12 10 12 42 0 64 14 96 43
96 36 0 47 -19 47 -82 0 -45 3 -58 15 -58 12 0 15 14 15 65 0 90 -34 125 -93
94 -16 -9 -22 -9 -25 0 -5 15 -21 14 -28 -2z"/>
<path d="M11867 7413 c-4 -3 -7 -14 -7 -23 0 -10 -7 -23 -16 -31 -14 -11 -14
-13 0 -21 12 -7 16 -25 16 -68 0 -47 3 -60 15 -60 12 0 15 14 15 65 0 51 3 65
15 65 8 0 15 5 15 10 0 6 -7 10 -15 10 -24 0 -17 30 10 40 14 5 25 12 25 15 0
7 -65 6 -73 -2z"/>
<path d="M12385 7409 c-10 -15 1 -23 20 -15 9 3 13 10 10 16 -8 13 -22 13 -30
-1z"/>
<path d="M12970 7315 c0 -87 3 -105 15 -105 12 0 15 18 15 105 0 87 -3 105
-15 105 -12 0 -15 -18 -15 -105z"/>
<path d="M11390 7310 c0 -82 3 -100 15 -100 11 0 15 11 15 40 0 38 2 40 30 40
17 0 39 9 50 20 45 45 9 100 -65 100 l-45 0 0 -100z m88 41 c4 -25 -12 -41
-40 -41 -14 0 -18 8 -18 36 0 33 2 35 28 32 20 -2 28 -9 30 -27z"/>
<path d="M13136 7397 c-32 -23 -17 -68 32 -95 64 -36 54 -68 -21 -63 -28 1
-38 -2 -35 -11 7 -21 87 -22 109 -2 32 29 21 65 -28 92 -58 32 -59 62 -4 62
42 0 62 14 35 24 -26 10 -69 7 -88 -7z"/>
<path d="M11560 7285 c0 -59 3 -75 15 -75 10 0 15 15 17 57 3 51 6 58 27 63
28 6 41 30 16 30 -9 0 -25 -5 -36 -10 -13 -7 -19 -7 -19 0 0 5 -4 10 -10 10
-6 0 -10 -32 -10 -75z"/>
<path d="M11687 7342 c-24 -26 -22 -87 3 -112 20 -20 65 -26 86 -12 38 25 41
112 4 132 -29 16 -75 12 -93 -8z m69 -10 c22 -14 26 -52 10 -77 -19 -29 -29
-31 -50 -9 -39 39 -3 115 40 86z"/>
<path d="M11956 7338 c-22 -31 -20 -84 4 -108 25 -25 100 -29 100 -5 0 11 -7
13 -28 9 -19 -4 -34 0 -45 11 -28 27 -20 35 33 35 46 0 50 2 50 23 0 54 -84
79 -114 35z m82 -20 c3 -15 -4 -18 -33 -18 -33 0 -35 2 -25 21 14 24 53 22 58
-3z"/>
<path d="M12111 7346 c-19 -23 -5 -50 35 -69 45 -22 39 -43 -10 -40 -26 2 -36
-1 -33 -10 2 -7 22 -12 47 -12 73 0 82 48 15 85 -35 19 -33 35 5 35 45 0 40
20 -6 23 -27 2 -45 -2 -53 -12z"/>
<path d="M12252 7351 c-24 -15 -10 -55 26 -70 20 -9 32 -22 32 -34 0 -17 -5
-19 -35 -14 -26 4 -35 2 -35 -9 0 -10 11 -14 38 -14 42 0 59 8 62 30 5 31 -1
41 -35 57 -19 9 -35 23 -35 31 0 11 9 13 35 9 26 -4 35 -2 35 9 0 16 -65 20
-88 5z"/>
<path d="M12380 7285 c0 -60 3 -75 15 -75 12 0 15 15 15 75 0 60 -3 75 -15 75
-12 0 -15 -15 -15 -75z"/>
<path d="M12484 7352 c-37 -24 -40 -88 -7 -124 23 -26 78 -23 97 4 22 31 20
91 -2 111 -19 17 -68 22 -88 9z m57 -22 c26 -14 26 -75 0 -89 -28 -15 -54 9
-53 49 0 18 7 37 14 41 16 11 16 11 39 -1z"/>
<path d="M12630 7285 c0 -60 3 -75 15 -75 11 0 15 12 15 48 0 55 18 86 46 80
16 -3 19 -13 22 -66 2 -46 7 -62 17 -62 12 0 15 15 15 63 0 69 -10 87 -50 87
-14 0 -31 -5 -38 -12 -9 -9 -12 -9 -12 0 0 7 -7 12 -15 12 -12 0 -15 -15 -15
-75z"/>
<path d="M12820 7346 c0 -9 11 -13 32 -12 23 1 33 -4 36 -16 3 -14 -3 -18 -23
-18 -39 0 -65 -18 -65 -43 0 -30 18 -47 50 -47 14 0 31 5 38 12 9 9 12 9 12 0
0 -7 5 -12 10 -12 14 0 13 123 -2 138 -17 17 -88 16 -88 -2z m70 -85 c0 -22
-37 -38 -52 -23 -17 17 -1 42 27 42 18 0 25 -5 25 -19z"/>
<path d="M13270 7313 c0 -64 18 -97 53 -101 16 -2 35 2 43 9 10 8 14 8 14 0 0
-6 7 -11 15 -11 12 0 15 15 15 75 0 57 -3 75 -14 75 -9 0 -15 -17 -18 -52 -4
-34 -12 -56 -24 -65 -30 -22 -39 -10 -42 55 -3 54 -6 62 -22 62 -17 0 -20 -7
-20 -47z"/>
<path d="M13450 7285 c0 -60 3 -75 15 -75 10 0 15 10 15 29 0 49 12 89 27 96
28 10 43 -15 43 -71 0 -41 4 -54 15 -54 11 0 15 13 15 54 0 56 17 83 45 72 11
-4 15 -21 15 -66 0 -47 3 -60 15 -60 13 0 15 13 13 73 l-3 72 -33 3 c-18 2
-39 -2 -47 -8 -9 -8 -15 -8 -20 0 -9 14 -58 13 -73 -2 -9 -9 -12 -9 -12 0 0 7
-7 12 -15 12 -12 0 -15 -15 -15 -75z"/>
<path d="M13720 7285 c0 -60 3 -75 15 -75 11 0 15 12 15 49 0 47 17 81 40 81
17 0 30 -38 30 -84 0 -34 4 -46 15 -46 11 0 15 13 15 54 0 56 17 83 45 72 11
-4 15 -21 15 -66 0 -47 3 -60 15 -60 12 0 15 14 15 63 0 36 -5 68 -12 75 -15
15 -60 16 -75 1 -8 -8 -13 -8 -17 0 -9 15 -59 14 -74 -1 -9 -9 -12 -9 -12 0 0
7 -7 12 -15 12 -12 0 -15 -15 -15 -75z"/>
<path d="M14000 7346 c0 -9 11 -13 32 -12 23 1 33 -4 36 -16 3 -14 -3 -18 -23
-18 -39 0 -65 -18 -65 -43 0 -30 18 -47 50 -47 14 0 31 5 38 12 9 9 12 9 12 0
0 -7 5 -12 10 -12 14 0 13 123 -2 138 -17 17 -88 16 -88 -2z m70 -85 c0 -22
-37 -38 -52 -23 -17 17 -1 42 27 42 18 0 25 -5 25 -19z"/>
<path d="M14150 7285 c0 -60 3 -75 15 -75 11 0 15 12 15 48 0 51 12 72 42 72
10 0 18 7 18 15 0 18 -31 20 -48 3 -9 -9 -12 -9 -12 0 0 7 -7 12 -15 12 -12 0
-15 -15 -15 -75z"/>
<path d="M14250 7357 c0 -2 13 -37 30 -77 32 -78 29 -110 -11 -110 -12 0 -19
-5 -16 -12 6 -18 49 -11 64 9 13 17 73 168 73 184 0 5 -6 9 -14 9 -9 0 -22
-23 -33 -57 l-19 -57 -20 55 c-12 33 -26 55 -37 57 -9 2 -17 2 -17 -1z"/>
<path d="M2890 7015 c0 -21 5 -25 30 -25 25 0 30 4 30 25 0 21 -5 25 -30 25
-25 0 -30 -4 -30 -25z"/>
<path d="M2445 7018 c-76 -41 -51 -125 44 -148 54 -13 77 -31 67 -55 -7 -20
-70 -20 -86 0 -7 8 -27 15 -45 15 -28 0 -32 -3 -28 -20 10 -39 51 -60 114 -60
46 0 63 5 83 23 62 55 35 113 -64 141 -53 15 -61 20 -58 39 4 28 64 38 74 13
7 -18 74 -23 74 -5 0 6 -13 24 -29 40 -25 24 -37 29 -78 29 -26 0 -57 -6 -68
-12z"/>
<path d="M2670 6890 l0 -140 25 0 c23 0 25 4 25 42 l0 42 43 -42 c29 -28 51
-42 70 -42 15 0 27 3 27 8 0 4 -20 30 -44 58 l-45 51 40 39 c21 21 39 42 39
46 0 21 -58 6 -85 -22 -16 -16 -32 -30 -37 -30 -4 0 -8 29 -8 65 0 63 -1 65
-25 65 l-25 0 0 -140z"/>
<path d="M3002 6893 l3 -138 28 -3 27 -3 0 140 0 141 -30 0 -31 0 3 -137z"/>
<path d="M3112 6893 l3 -138 28 -3 27 -3 0 140 0 141 -30 0 -31 0 3 -137z"/>
<path d="M3572 7014 c-24 -17 -31 -71 -10 -92 9 -9 7 -17 -10 -35 -59 -63 -25
-137 63 -137 26 0 56 5 67 11 14 8 23 8 31 0 12 -12 67 -15 67 -4 0 4 -9 17
-20 28 l-21 22 21 36 c23 39 20 57 -9 57 -11 0 -24 -12 -31 -31 l-13 -30 -26
25 -25 26 27 28 c32 33 34 65 7 92 -24 24 -86 27 -118 4z m84 -39 c7 -18 -12
-45 -32 -45 -15 0 -28 35 -19 50 9 15 45 12 51 -5z m4 -166 c0 -14 -39 -20
-60 -9 -22 12 -26 40 -8 58 9 9 18 6 40 -15 15 -15 28 -30 28 -34z"/>
<path d="M3910 6890 l0 -141 33 3 32 3 0 135 0 135 -32 3 -33 3 0 -141z"/>
<path d="M4310 6996 c0 -28 -4 -35 -22 -38 -15 -2 -23 -10 -23 -23 0 -13 8
-21 23 -23 20 -3 22 -9 22 -67 0 -57 3 -66 24 -80 35 -23 91 -16 91 10 0 14
-8 21 -26 23 -29 3 -39 23 -39 80 0 29 3 32 30 32 25 0 30 4 30 25 0 21 -5 25
-30 25 -28 0 -30 3 -30 35 0 31 -3 35 -25 35 -22 0 -25 -4 -25 -34z"/>
<path d="M5340 6995 c0 -28 -4 -35 -20 -35 -15 0 -20 -7 -20 -25 0 -18 5 -25
20 -25 18 0 20 -7 20 -55 0 -70 29 -105 85 -105 30 0 35 3 35 24 0 19 -6 25
-27 28 -26 3 -28 7 -31 55 -3 50 -2 52 25 55 39 4 40 42 1 46 -25 3 -28 8 -28
38 0 31 -2 34 -30 34 -28 0 -30 -3 -30 -35z"/>
<path d="M2894 6947 c-3 -8 -4 -54 -2 -103 3 -89 3 -89 31 -92 l27 -3 0 105 0
106 -25 0 c-14 0 -28 -6 -31 -13z"/>
<path d="M3242 6944 c-30 -21 -30 -69 1 -88 12 -7 39 -19 60 -26 20 -6 37 -16
37 -21 0 -18 -31 -22 -70 -9 -40 13 -62 8 -54 -14 15 -38 130 -50 164 -16 40
40 19 83 -50 103 -51 15 -69 47 -26 47 14 0 28 -4 31 -10 3 -5 17 -10 31 -10
19 0 25 5 22 17 -7 39 -103 57 -146 27z"/>
<path d="M4034 6947 c-3 -8 -4 -54 -2 -103 3 -89 3 -89 31 -92 27 -3 27 -2 27
52 0 75 13 106 45 106 32 0 45 -31 45 -106 0 -54 0 -55 28 -52 26 3 27 6 30
63 4 72 -2 99 -28 125 -23 23 -79 27 -99 8 -11 -10 -14 -10 -18 0 -6 16 -52
16 -59 -1z"/>
<path d="M4498 6945 c-53 -29 -57 -144 -5 -180 31 -22 99 -19 131 6 14 11 26
25 26 30 0 13 -54 11 -67 -2 -18 -18 -58 -7 -61 19 -3 21 0 22 68 22 l72 0 -7
33 c-11 48 -23 67 -51 77 -35 14 -74 12 -106 -5z m90 -52 c3 -20 -1 -23 -32
-23 -28 0 -36 4 -36 18 0 26 10 33 40 30 17 -2 26 -10 28 -25z"/>
<path d="M4700 6855 l0 -105 30 0 29 0 3 73 3 72 35 5 c29 4 36 10 38 33 4 30
-9 34 -52 17 -16 -6 -27 -6 -31 0 -4 6 -17 10 -31 10 -24 0 -24 0 -24 -105z"/>
<path d="M4889 6931 c-24 -24 -29 -38 -29 -76 0 -65 39 -105 102 -105 46 0 88
22 88 46 0 18 -43 19 -70 2 -23 -15 -53 -2 -58 26 -3 14 7 16 67 16 l71 0 0
31 c0 47 -47 89 -100 89 -33 0 -48 -6 -71 -29z m99 -23 c24 -24 13 -38 -28
-38 -26 0 -40 5 -40 13 0 18 21 37 40 37 9 0 21 -5 28 -12z"/>
<path d="M5122 6944 c-30 -21 -30 -69 1 -88 12 -7 39 -19 60 -26 20 -6 37 -16
37 -21 0 -18 -31 -22 -70 -9 -40 13 -62 8 -54 -14 15 -38 130 -50 164 -16 40
40 19 83 -50 103 -51 15 -69 47 -26 47 14 0 28 -4 31 -10 3 -5 17 -10 31 -10
19 0 25 5 22 17 -7 39 -103 57 -146 27z"/>
<path d="M5516 6939 c-47 -37 -25 -83 52 -104 48 -14 57 -45 13 -45 -16 0 -33
5 -36 10 -10 16 -55 12 -55 -4 0 -25 42 -46 90 -46 58 0 90 22 90 60 0 33 -27
57 -77 66 -38 7 -50 21 -34 37 7 7 22 7 51 -3 54 -18 73 -2 34 29 -35 27 -93
28 -128 0z"/>
<path d="M26625 6555 c-114 -41 -156 -185 -84 -286 52 -74 184 -91 256 -33 55
45 75 88 71 156 -9 126 -127 206 -243 163z m80 -150 c0 -38 -4 -60 -12 -62
-10 -4 -13 13 -13 62 0 49 3 66 13 63 8 -3 12 -25 12 -63z m0 -96 c10 -15 -1
-23 -20 -15 -9 3 -13 10 -10 16 8 13 22 13 30 -1z"/>
<path d="M12980 6426 c0 -98 2 -116 15 -116 13 0 15 17 13 112 -2 78 -7 113
-15 116 -10 3 -13 -24 -13 -112z"/>
<path d="M13060 6426 c0 -98 2 -116 15 -116 13 0 15 17 13 112 -2 78 -7 113
-15 116 -10 3 -13 -24 -13 -112z"/>
<path d="M13264 6533 c-12 -2 -30 -13 -40 -24 -30 -33 -9 -70 56 -96 64 -25
79 -56 36 -73 -28 -10 -71 1 -78 20 -2 7 -13 11 -23 8 -19 -3 -18 -5 7 -31 50
-50 148 -29 148 33 0 33 -21 50 -82 69 -43 14 -57 40 -32 58 26 19 50 16 73
-8 23 -25 46 -17 31 11 -7 14 -69 46 -74 39 -1 -1 -11 -4 -22 -6z"/>
<path d="M13430 6511 c0 -21 -5 -31 -15 -31 -8 0 -15 -7 -15 -15 0 -8 7 -15
15 -15 11 0 15 -13 15 -54 0 -61 16 -86 57 -86 30 0 26 24 -5 28 -20 3 -22 10
-22 58 0 47 2 54 20 54 11 0 20 7 20 15 0 8 -9 15 -19 15 -14 0 -21 8 -23 27
-4 39 -28 42 -28 4z"/>
<path d="M13897 6533 c-4 -3 -7 -55 -7 -115 0 -89 3 -108 15 -108 11 0 15 11
15 37 l0 37 38 -37 c21 -20 46 -37 57 -37 15 0 10 10 -25 46 l-45 46 38 32
c61 54 41 67 -24 15 l-39 -31 0 61 c0 56 -6 71 -23 54z"/>
<path d="M14247 6533 c-4 -3 -7 -21 -7 -40 0 -31 -2 -33 -21 -23 -71 38 -128
-77 -71 -142 11 -13 28 -17 68 -15 l54 2 0 113 c0 102 -5 124 -23 105z m-13
-99 c13 -35 6 -83 -14 -94 -43 -23 -81 30 -60 84 7 20 17 26 39 26 17 0 31 -6
35 -16z"/>
<path d="M14850 6425 c0 -89 3 -116 13 -112 8 2 12 34 12 112 0 78 -4 110 -12
113 -10 3 -13 -24 -13 -113z"/>
<path d="M11650 6420 c0 -91 3 -110 15 -110 12 0 15 19 15 110 0 91 -3 110
-15 110 -12 0 -15 -19 -15 -110z"/>
<path d="M12610 6420 c0 -91 3 -110 15 -110 11 0 15 12 15 44 l0 45 52 3 c74
4 77 28 4 28 l-56 0 0 40 0 40 55 0 c30 0 55 5 55 10 0 6 -30 10 -70 10 l-70
0 0 -110z"/>
<path d="M11829 6461 c-31 -25 -20 -36 16 -17 20 11 34 12 47 5 31 -17 21 -36
-22 -42 -50 -6 -70 -22 -70 -53 0 -38 69 -61 98 -32 9 9 12 9 12 0 0 -7 7 -12
15 -12 25 0 21 124 -5 150 -25 25 -61 26 -91 1z m81 -83 c0 -19 -32 -48 -52
-48 -27 0 -35 30 -13 46 23 17 65 18 65 2z"/>
<path d="M11990 6394 c0 -64 3 -85 13 -82 7 3 14 30 17 69 5 63 5 64 35 64
l30 0 3 -67 c2 -52 6 -68 17 -68 12 0 15 14 15 58 0 60 11 82 42 82 23 0 38
-38 38 -96 0 -24 5 -44 10 -44 6 0 10 30 10 69 0 61 -3 72 -22 85 -28 20 -52
20 -68 1 -10 -12 -15 -12 -37 2 -20 13 -31 14 -54 6 -16 -6 -29 -7 -29 -2 0 5
-4 9 -10 9 -6 0 -10 -35 -10 -86z"/>
<path d="M12369 6461 c-31 -25 -20 -36 16 -17 20 11 34 12 47 5 31 -17 21 -36
-22 -42 -50 -6 -70 -22 -70 -53 0 -38 69 -61 98 -32 9 9 12 9 12 0 0 -7 7 -12
15 -12 25 0 21 124 -5 150 -25 25 -61 26 -91 1z m81 -83 c0 -19 -32 -48 -52
-48 -27 0 -35 30 -13 46 23 17 65 18 65 2z"/>
<path d="M12790 6412 c0 -54 4 -72 18 -85 22 -20 63 -22 80 -5 9 9 12 9 12 0
0 -7 7 -12 15 -12 12 0 15 16 15 86 0 64 -3 85 -12 82 -8 -3 -14 -28 -16 -67
-3 -55 -6 -63 -28 -73 -37 -17 -57 8 -62 82 -6 82 -22 76 -22 -8z"/>
<path d="M13559 6461 c-31 -25 -20 -36 16 -17 20 11 34 12 47 5 31 -17 21 -36
-22 -42 -50 -6 -70 -22 -70 -53 0 -38 69 -61 98 -32 9 9 12 9 12 0 0 -7 7 -12
15 -12 25 0 21 124 -5 150 -25 25 -61 26 -91 1z m81 -83 c0 -19 -32 -48 -52
-48 -27 0 -35 30 -13 46 23 17 65 18 65 2z"/>
<path d="M13732 6457 c-26 -28 -30 -92 -6 -125 28 -41 124 -21 124 26 0 17 -7
15 -41 -10 -36 -27 -62 -16 -67 27 -6 52 5 75 39 75 17 0 32 -6 35 -15 8 -19
34 -20 34 -1 0 21 -39 46 -70 46 -15 0 -36 -10 -48 -23z"/>
<path d="M14345 6463 c-56 -56 -31 -153 40 -153 35 0 96 39 62 40 -9 0 -26 -5
-36 -12 -23 -14 -46 -6 -61 21 -10 20 -8 21 50 21 58 0 60 1 60 25 0 56 -78
96 -115 58z m77 -27 c17 -25 7 -36 -32 -36 -33 0 -40 3 -40 20 0 35 51 46 72
16z"/>
<path d="M14487 6473 c-8 -14 58 -158 74 -161 11 -2 24 20 46 75 17 43 29 82
26 86 -9 16 -30 -13 -48 -68 -11 -30 -22 -52 -25 -47 -4 4 -17 33 -30 65 -21
53 -33 67 -43 50z"/>
<path d="M14685 6455 c-32 -31 -34 -91 -5 -123 24 -26 76 -29 106 -8 26 19 10
32 -21 18 -34 -16 -40 -15 -59 4 -27 26 -18 34 38 34 30 0 57 4 60 9 3 5 1 23
-5 40 -19 55 -73 68 -114 26z m85 -25 c13 -24 4 -30 -42 -30 -37 0 -47 11 -30
36 18 27 56 24 72 -6z"/>
<path d="M14946 6459 c-21 -17 -26 -29 -26 -65 0 -55 25 -84 73 -84 48 0 72
30 71 88 -2 75 -61 106 -118 61z m86 -34 c14 -30 2 -72 -24 -89 -38 -24 -69
29 -54 90 9 35 62 34 78 -1z"/>
<path d="M15117 6473 c-4 -3 -7 -55 -7 -115 0 -89 3 -108 15 -108 11 0 15 11
15 42 0 33 3 39 12 30 13 -13 57 -16 74 -4 6 4 16 17 23 29 37 71 -28 162 -89
123 -9 -5 -19 -5 -26 0 -6 6 -14 7 -17 3z m103 -42 c17 -32 12 -69 -12 -85
-28 -20 -33 -20 -52 0 -19 18 -21 75 -4 92 18 18 56 14 68 -7z"/>
<path d="M15319 6461 c-31 -25 -34 -98 -5 -130 22 -25 73 -28 102 -7 24 18 10
34 -16 18 -11 -7 -26 -12 -33 -12 -14 0 -47 31 -47 43 0 3 26 7 58 9 50 3 57
6 60 25 4 29 -39 73 -71 73 -14 0 -35 -9 -48 -19z m86 -42 c0 -18 -63 -25 -79
-9 -8 8 -5 16 13 31 21 17 26 18 45 6 12 -8 21 -21 21 -28z"/>
<path d="M15480 6395 c0 -69 3 -85 15 -85 12 0 15 13 15 58 0 60 11 82 42 82
10 0 18 7 18 15 0 18 -1 18 -34 5 -16 -6 -27 -6 -31 0 -17 27 -25 2 -25 -75z"/>
<path d="M15580 6330 c0 -15 5 -20 18 -18 9 2 17 10 17 18 0 8 -8 16 -17 18
-13 2 -18 -3 -18 -18z"/>
<path d="M3450 5317 c-25 -9 -37 -20 -43 -44 -5 -17 -18 -33 -28 -36 -25 -7
-24 -37 1 -44 17 -4 20 -15 22 -82 3 -75 3 -76 31 -79 l27 -3 0 80 0 81 35 0
35 0 0 -81 0 -80 28 3 27 3 0 100 0 100 -63 3 c-52 2 -63 6 -58 18 3 9 6 18 6
20 0 2 27 4 61 4 57 0 60 1 57 23 -3 19 -10 22 -53 24 -27 1 -66 -3 -85 -10z"/>
<path d="M3270 5295 c0 -21 5 -25 30 -25 25 0 30 4 30 25 0 21 -5 25 -30 25
-25 0 -30 -4 -30 -25z"/>
<path d="M4280 5295 c0 -21 5 -25 30 -25 25 0 30 4 30 25 0 21 -5 25 -30 25
-25 0 -30 -4 -30 -25z"/>
<path d="M2453 5298 c-12 -6 -29 -25 -37 -43 -19 -39 -21 -133 -4 -170 40 -88
228 -64 228 29 0 27 -55 20 -74 -9 -18 -27 -63 -34 -84 -13 -16 16 -16 140 0
156 21 21 66 14 84 -13 11 -17 25 -25 45 -25 31 0 37 16 19 51 -23 43 -122 64
-177 37z"/>
<path d="M3110 5276 c0 -25 -5 -35 -20 -39 -12 -3 -20 -14 -20 -26 0 -14 6
-21 20 -21 18 0 20 -7 20 -55 0 -70 29 -105 85 -105 30 0 35 3 35 24 0 19 -6
25 -27 28 -26 3 -28 7 -31 56 l-3 52 30 0 c26 0 31 4 31 25 0 21 -5 25 -30 25
-28 0 -30 3 -30 35 0 32 -2 35 -30 35 -27 0 -30 -3 -30 -34z"/>
<path d="M4120 5276 c0 -25 -5 -35 -20 -39 -12 -3 -20 -14 -20 -26 0 -14 6
-21 20 -21 18 0 20 -7 20 -55 0 -70 29 -105 85 -105 30 0 35 3 35 24 0 19 -6
25 -27 28 -26 3 -28 7 -31 56 l-3 52 30 0 c26 0 31 4 31 25 0 21 -5 25 -30 25
-28 0 -30 3 -30 35 0 32 -2 35 -30 35 -27 0 -30 -3 -30 -34z"/>
<path d="M2718 5225 c-53 -29 -57 -144 -5 -180 31 -22 99 -19 131 6 14 11 26
25 26 30 0 13 -54 11 -67 -2 -18 -18 -58 -7 -61 19 -3 21 0 22 68 22 l72 0 -7
33 c-11 48 -23 67 -51 77 -35 14 -74 12 -106 -5z m90 -52 c3 -20 -1 -23 -32
-23 -28 0 -36 4 -36 18 0 26 10 33 40 30 17 -2 26 -10 28 -25z"/>
<path d="M2920 5135 l0 -105 30 0 29 0 3 73 3 72 35 5 c29 4 36 10 38 33 4 30
-9 34 -52 17 -16 -6 -27 -6 -31 0 -4 6 -17 10 -31 10 -24 0 -24 0 -24 -105z"/>
<path d="M3270 5136 l0 -106 30 0 31 0 -3 103 -3 102 -27 3 -28 3 0 -105z"/>
<path d="M3659 5211 c-23 -23 -29 -38 -29 -71 0 -76 31 -109 103 -110 38 0 53
5 73 25 14 14 24 31 21 38 -6 21 -45 19 -66 -2 -25 -25 -35 -26 -55 -5 -16 16
-21 59 -10 88 8 20 60 21 68 1 7 -18 66 -21 66 -2 -1 35 -52 67 -105 67 -27 0
-44 -8 -66 -29z"/>
<path d="M3905 5228 c-21 -12 -35 -28 -35 -40 0 -12 48 -9 69 4 22 13 51 5 51
-15 0 -9 -16 -17 -42 -21 -81 -13 -113 -55 -76 -101 14 -19 29 -25 57 -25 20
0 42 5 48 11 8 8 13 8 17 0 4 -6 18 -11 32 -11 24 0 24 2 24 84 0 79 -2 86
-26 105 -29 23 -87 27 -119 9z m75 -143 c-14 -17 -56 -20 -65 -5 -10 16 13 38
43 42 30 3 40 -15 22 -37z"/>
<path d="M4280 5135 l0 -106 28 3 27 3 0 100 0 100 -27 3 -28 3 0 -106z"/>
<path d="M4409 5211 c-23 -23 -29 -38 -29 -71 0 -44 13 -77 39 -97 23 -17 102
-16 128 2 53 37 48 154 -7 182 -45 23 -98 16 -131 -16z m99 -23 c16 -16 16
-90 0 -106 -18 -18 -46 -14 -58 7 -32 60 16 141 58 99z"/>
<path d="M4630 5135 l0 -105 30 0 30 0 0 64 c0 83 6 96 40 96 34 0 40 -13 40
-96 l0 -64 30 0 30 0 0 79 c0 64 -4 83 -21 105 -22 28 -64 35 -99 16 -13 -7
-21 -7 -25 0 -3 5 -17 10 -31 10 -24 0 -24 0 -24 -105z"/>
<path d="M4902 5224 c-30 -21 -30 -69 1 -88 12 -7 39 -19 60 -26 20 -6 37 -16
37 -21 0 -18 -31 -22 -70 -9 -40 13 -62 8 -54 -14 15 -38 130 -50 164 -16 40
40 19 83 -50 103 -51 15 -69 47 -26 47 14 0 28 -4 31 -10 3 -5 17 -10 31 -10
19 0 25 5 22 17 -7 39 -103 57 -146 27z"/>
<path d="M27157 5032 c-37 -37 -65 -70 -62 -73 4 -5 145 129 145 138 0 13 -25
-6 -83 -65z"/>
<path d="M27197 4992 c-37 -38 -24 -47 13 -10 17 16 30 31 30 34 0 12 -19 1
-43 -24z"/>
<path d="M11560 4115 c0 -85 3 -105 15 -105 10 0 15 15 17 56 2 40 8 60 20 67
29 19 48 -9 48 -69 0 -41 4 -54 15 -54 18 0 21 83 5 125 -9 24 -15 27 -50 23
-39 -3 -40 -3 -40 29 0 23 -5 33 -15 33 -12 0 -15 -18 -15 -105z"/>
<path d="M12980 4115 c0 -87 3 -105 15 -105 8 0 15 5 15 12 0 9 3 9 12 0 17
-17 63 -15 79 5 17 20 17 97 -1 118 -15 18 -61 20 -78 3 -9 -9 -12 -3 -12 30
0 31 -4 42 -15 42 -12 0 -15 -18 -15 -105z m84 19 c30 -11 16 -104 -15 -104
-16 0 -39 33 -39 55 0 13 7 31 16 39 18 18 17 18 38 10z"/>
<path d="M11390 4110 c0 -82 3 -100 15 -100 11 0 15 11 15 40 0 38 2 40 30 40
17 0 39 9 50 20 45 45 9 100 -65 100 l-45 0 0 -100z m88 41 c4 -25 -12 -41
-40 -41 -14 0 -18 8 -18 36 0 33 2 35 28 32 20 -2 28 -9 30 -27z"/>
<path d="M12320 4110 c0 -81 3 -100 15 -100 11 0 15 17 17 76 l3 75 45 -75
c35 -60 49 -76 68 -76 22 0 23 1 20 97 -2 64 -7 98 -15 100 -9 3 -13 -18 -15
-74 l-3 -78 -49 78 c-32 52 -54 77 -67 77 -17 0 -19 -8 -19 -100z"/>
<path d="M11746 4141 c-10 -11 -18 -36 -18 -56 0 -20 8 -45 18 -56 23 -25 75
-25 98 0 24 27 25 85 1 111 -24 26 -76 27 -99 1z m72 -13 c18 -18 15 -75 -5
-87 -28 -15 -53 5 -53 42 0 33 15 57 35 57 6 0 16 -5 23 -12z"/>
<path d="M11900 4085 c0 -57 3 -75 14 -75 9 0 15 18 19 57 6 56 19 75 47 70
11 -2 16 -19 18 -65 3 -54 6 -62 22 -62 17 0 20 7 20 48 0 63 -18 96 -53 100
-16 2 -35 -2 -43 -9 -10 -8 -14 -8 -14 0 0 6 -7 11 -15 11 -12 0 -15 -15 -15
-75z"/>
<path d="M12096 4141 c-23 -26 -23 -86 0 -112 13 -15 28 -19 58 -17 22 2 41 9
44 15 2 9 -5 11 -27 7 -33 -7 -61 8 -61 32 0 10 14 14 51 14 51 0 51 0 44 27
-4 16 -11 34 -17 40 -16 20 -72 16 -92 -6z m74 -21 c10 -18 8 -20 -25 -20 -49
0 -47 36 2 39 7 1 17 -8 23 -19z"/>
<path d="M12530 4113 c0 -64 18 -97 53 -101 16 -2 35 2 43 9 10 8 14 8 14 0 0
-6 7 -11 15 -11 12 0 15 15 15 75 0 57 -3 75 -14 75 -9 0 -15 -17 -18 -52 -4
-34 -12 -56 -24 -65 -30 -22 -39 -10 -42 55 -3 54 -6 62 -22 62 -17 0 -20 -7
-20 -47z"/>
<path d="M12710 4085 c0 -60 3 -75 15 -75 10 0 15 10 15 29 0 49 12 89 27 96
28 10 43 -15 43 -71 0 -41 4 -54 15 -54 11 0 15 13 15 54 0 56 17 83 45 72 11
-4 15 -21 15 -66 0 -47 3 -60 15 -60 13 0 15 13 13 73 l-3 72 -33 3 c-18 2
-39 -2 -47 -8 -9 -8 -15 -8 -20 0 -9 14 -58 13 -73 -2 -9 -9 -12 -9 -12 0 0 7
-7 12 -15 12 -12 0 -15 -15 -15 -75z"/>
<path d="M13167 4142 c-24 -26 -22 -87 4 -113 23 -23 89 -24 97 -1 3 9 -3 11
-21 7 -30 -8 -67 9 -67 30 0 11 13 15 50 15 55 0 64 15 34 58 -19 28 -74 30
-97 4z m71 -14 c20 -20 14 -28 -23 -28 -19 0 -35 4 -35 8 0 12 22 32 35 32 6
0 16 -5 23 -12z"/>
<path d="M13320 4085 c0 -59 3 -75 15 -75 10 0 15 15 17 57 3 51 6 58 27 63
28 6 41 30 16 30 -9 0 -25 -5 -36 -10 -13 -7 -19 -7 -19 0 0 5 -4 10 -10 10
-6 0 -10 -32 -10 -75z"/>
<path d="M3170 3575 c0 -21 5 -25 30 -25 25 0 30 4 30 25 0 21 -5 25 -30 25
-25 0 -30 -4 -30 -25z"/>
<path d="M2480 3571 c-15 -30 -90 -234 -90 -248 0 -25 50 -14 62 12 10 22 17
25 68 25 51 0 58 -3 68 -25 13 -28 62 -36 62 -11 0 8 -21 71 -46 140 l-47 126
-33 0 c-23 0 -37 -6 -44 -19z m74 -138 c7 -21 4 -23 -34 -23 -46 0 -46 2 -13
80 l15 35 13 -35 c6 -19 15 -45 19 -57z"/>
<path d="M2920 3450 l0 -140 30 0 29 0 3 78 c3 77 3 77 32 80 38 5 46 -10 46
-90 l0 -68 30 0 30 0 0 80 c0 73 -3 83 -25 105 -25 26 -63 32 -96 15 -17 -10
-19 -7 -19 35 0 43 -1 45 -30 45 l-30 0 0 -140z"/>
<path d="M4840 3555 c0 -28 -4 -35 -20 -35 -15 0 -20 -7 -20 -25 0 -18 5 -25
20 -25 18 0 20 -7 20 -60 0 -75 20 -100 80 -100 36 0 40 3 40 24 0 19 -6 25
-27 28 -26 3 -28 7 -31 55 -3 50 -2 52 25 55 39 4 40 42 1 46 -25 3 -28 8 -28
38 0 31 -2 34 -30 34 -28 0 -30 -3 -30 -35z"/>
<path d="M2725 3508 c-34 -20 -44 -41 -45 -96 0 -43 5 -57 25 -77 40 -41 134
-31 163 16 7 11 10 24 7 29 -10 15 -55 12 -61 -5 -8 -20 -42 -29 -59 -15 -20
16 -19 84 1 104 16 16 45 9 59 -14 8 -13 52 -13 60 0 4 6 -7 24 -24 40 -23 23
-38 30 -68 30 -21 0 -47 -6 -58 -12z"/>
<path d="M3174 3507 c-3 -8 -4 -54 -2 -103 3 -89 3 -89 31 -92 l27 -3 0 105 0
106 -25 0 c-14 0 -28 -6 -31 -13z"/>
<path d="M3318 3505 c-53 -29 -57 -144 -5 -180 31 -22 99 -19 131 6 14 11 26
25 26 30 0 13 -54 11 -67 -2 -18 -18 -58 -7 -61 19 -3 21 0 22 68 22 l72 0 -7
33 c-11 48 -23 67 -51 77 -35 14 -74 12 -106 -5z m90 -52 c3 -20 -1 -23 -32
-23 -28 0 -36 4 -36 18 0 26 10 33 40 30 17 -2 26 -10 28 -25z"/>
<path d="M3496 3512 c-2 -4 14 -51 36 -105 37 -89 43 -97 68 -97 26 0 31 7 68
99 22 55 37 102 34 105 -3 3 -15 6 -28 6 -18 0 -26 -11 -46 -65 -12 -36 -25
-65 -29 -65 -3 0 -16 29 -28 65 -20 55 -27 65 -47 65 -12 0 -25 -3 -28 -8z"/>
<path d="M3768 3505 c-53 -29 -57 -144 -5 -180 31 -22 99 -19 131 6 14 11 26
25 26 30 0 13 -54 11 -67 -2 -18 -18 -58 -7 -61 19 -3 21 0 22 68 22 l72 0 -7
33 c-11 48 -23 67 -51 77 -35 14 -74 12 -106 -5z m90 -52 c3 -20 -1 -23 -32
-23 -28 0 -36 4 -36 18 0 26 10 33 40 30 17 -2 26 -10 28 -25z"/>
<path d="M3970 3414 l0 -105 28 3 c26 3 27 5 32 78 4 64 8 75 24 78 31 6 46
-26 46 -96 0 -63 0 -63 28 -60 26 3 27 5 32 78 5 72 6 75 30 75 24 0 25 -3 30
-75 5 -73 6 -75 33 -78 l27 -3 0 85 c0 73 -3 89 -20 106 -24 24 -67 26 -97 5
-18 -13 -22 -13 -33 0 -15 18 -71 20 -89 3 -11 -10 -14 -10 -18 0 -3 6 -16 12
-29 12 -24 0 -24 -1 -24 -106z"/>
<path d="M4367 3509 c-53 -31 -60 -140 -10 -179 35 -27 102 -27 137 1 14 11
26 25 26 30 0 13 -54 11 -67 -2 -18 -18 -58 -7 -61 19 -3 21 0 22 62 22 l66 0
0 31 c0 46 -47 89 -97 89 -21 0 -46 -5 -56 -11z m81 -41 c23 -23 13 -38 -23
-38 -27 0 -35 4 -35 18 0 10 3 22 7 25 10 11 38 8 51 -5z"/>
<path d="M4570 3414 l0 -105 28 3 c26 3 27 5 32 78 5 69 7 75 28 78 40 6 52
-14 52 -89 l0 -69 30 0 30 0 0 80 c0 73 -3 83 -25 105 -26 27 -63 32 -98 14
-16 -9 -22 -9 -25 0 -2 6 -15 11 -28 11 -24 0 -24 -1 -24 -106z"/>
<path d="M5022 3508 c-12 -6 -25 -21 -28 -34 -9 -36 12 -62 64 -77 27 -8 47
-20 47 -28 0 -17 -43 -25 -58 -10 -16 16 -57 14 -57 -3 0 -25 42 -46 90 -46
57 0 90 22 90 59 0 35 -15 48 -71 64 -23 7 -44 18 -47 25 -6 18 28 27 49 14
26 -17 59 -15 59 2 0 38 -86 59 -138 34z"/>
<path d="M11679 3349 c-61 -23 -57 -113 6 -133 17 -6 32 -11 34 -13 2 -1 -6
-14 -18 -29 -24 -31 -27 -44 -7 -44 22 0 96 119 96 155 0 53 -56 85 -111 64z
m62 -29 c25 -14 24 -55 -2 -74 -43 -30 -93 20 -63 63 17 23 35 26 65 11z"/>
<path d="M12265 3350 c-38 -15 -50 -38 -37 -72 9 -25 8 -35 -3 -52 -21 -29
-19 -43 10 -71 65 -66 191 8 129 76 -12 14 -13 21 -3 37 19 30 4 68 -32 81
-36 13 -37 13 -64 1z m69 -42 c16 -26 -14 -53 -49 -44 -31 8 -42 31 -24 52 16
19 59 14 73 -8z m11 -102 c8 -14 5 -21 -14 -37 -13 -10 -29 -19 -37 -19 -22 0
-54 38 -47 56 13 36 76 36 98 0z"/>
<path d="M12659 3349 c-34 -12 -49 -47 -49 -113 0 -72 26 -106 80 -106 57 0
80 34 80 115 0 90 -42 128 -111 104z m65 -35 c11 -10 16 -34 16 -74 0 -48 -4
-62 -21 -73 -44 -31 -79 5 -79 81 0 67 47 104 84 66z"/>
<path d="M13060 3353 c-45 -17 -65 -64 -38 -91 9 -9 8 -16 -5 -30 -40 -44 -3
-102 67 -102 32 0 48 6 64 23 26 27 27 45 7 73 -12 17 -12 27 -2 53 10 27 9
34 -8 50 -22 22 -62 33 -85 24z m64 -46 c9 -15 7 -21 -9 -33 -39 -29 -95 5
-65 41 17 20 59 16 74 -8z m7 -98 c7 -14 5 -23 -11 -39 -25 -25 -41 -25 -71
-2 -26 22 -21 48 13 61 29 11 56 3 69 -20z"/>
<path d="M11830 3340 c0 -5 23 -10 52 -10 l52 0 -32 -33 c-44 -45 -42 -65 6
-69 28 -2 38 -8 40 -23 1 -11 -2 -26 -7 -34 -13 -20 -71 -18 -83 2 -11 21 -38
22 -38 3 0 -23 41 -46 80 -46 80 0 110 88 42 120 l-33 16 31 29 c47 45 40 55
-40 55 -40 0 -70 -4 -70 -10z"/>
<path d="M12058 3280 c-63 -91 -63 -100 7 -100 52 0 55 -1 55 -25 0 -16 6 -25
15 -25 9 0 15 9 15 24 0 16 7 26 21 29 23 6 17 27 -7 27 -11 0 -14 16 -14 70
0 66 -1 70 -22 70 -17 -1 -36 -19 -70 -70z m62 -20 l0 -50 -35 0 c-19 0 -35 3
-35 6 0 8 60 94 65 94 3 0 5 -22 5 -50z"/>
<path d="M12437 3343 c-11 -10 -8 -113 3 -113 6 0 19 5 29 12 29 18 71 -4 71
-36 0 -45 -72 -69 -87 -30 -7 18 -33 18 -33 1 0 -24 35 -47 71 -47 52 0 79 24
79 69 0 48 -24 71 -73 71 -34 0 -37 2 -37 30 0 29 1 30 50 30 28 0 50 5 50 10
0 11 -113 14 -123 3z"/>
<path d="M12826 3328 c-8 -31 -8 -98 1 -98 4 0 22 6 41 12 31 12 36 11 52 -10
11 -13 16 -31 13 -43 -10 -36 -74 -46 -87 -13 -7 18 -36 18 -36 0 0 -23 41
-46 81 -46 29 0 43 6 58 26 12 15 21 34 21 44 0 10 -9 29 -21 44 -16 20 -29
26 -60 26 -38 0 -40 2 -37 28 3 25 7 27 51 30 67 4 58 22 -12 22 -52 0 -59 -2
-65 -22z"/>
<path d="M13215 3295 c-4 -31 -5 -58 -2 -61 3 -3 22 0 41 7 33 12 38 11 58 -9
18 -18 20 -25 11 -45 -15 -33 -47 -39 -77 -16 -43 34 -64 17 -26 -21 29 -29
90 -27 118 3 48 51 14 117 -59 117 -38 0 -41 2 -35 23 3 12 6 25 6 30 0 4 23
7 50 7 28 0 50 5 50 10 0 6 -28 10 -64 10 l-65 0 -6 -55z"/>
<path d="M13431 3288 c-46 -69 -50 -94 -20 -132 37 -47 133 -27 140 29 7 52
-28 95 -77 95 -11 0 -8 9 12 35 25 33 25 35 7 35 -14 0 -34 -21 -62 -62z m77
-50 c31 -31 -5 -92 -49 -81 -37 10 -46 64 -15 85 17 12 51 9 64 -4z"/>
<path d="M2630 2078 c-33 -17 -51 -35 -67 -68 -23 -44 -23 -46 -23 -530 0
-484 0 -486 23 -530 16 -33 34 -51 67 -68 l44 -22 2266 0 2266 0 44 23 c33 16
51 34 68 67 22 44 22 46 22 530 0 484 0 486 -22 530 -17 33 -35 51 -68 68
l-44 22 -2266 0 -2266 0 -44 -22z m976 -453 c4 -8 12 -15 20 -15 20 0 18 -8
-8 -36 -27 -27 -38 -30 -38 -9 0 8 -6 15 -14 15 -24 0 -30 21 -7 27 12 3 21
12 21 19 0 19 19 18 26 -1z m-72 -81 c14 -29 31 -46 60 -60 23 -10 41 -25 41
-33 0 -7 -20 -23 -44 -35 -34 -16 -47 -29 -56 -56 -18 -53 -49 -53 -67 1 -11
33 -21 45 -44 52 -66 22 -72 50 -13 74 33 13 45 25 60 60 11 25 24 43 32 41 6
-2 21 -22 31 -44z m484 30 c24 -17 30 -54 8 -54 -7 0 -19 7 -26 15 -17 20 -66
19 -74 -1 -3 -9 -6 -33 -6 -54 0 -29 5 -42 20 -50 24 -13 60 3 60 25 0 8 -9
15 -20 15 -11 0 -20 7 -20 15 0 11 12 15 45 15 43 0 45 -1 45 -29 0 -17 -10
-42 -23 -57 -18 -21 -32 -27 -65 -27 -26 0 -50 7 -61 18 -39 34 -35 140 6 171
24 18 84 17 111 -2z m202 -4 c0 -17 -7 -20 -50 -20 -43 0 -50 -3 -50 -20 0
-17 7 -20 45 -20 38 0 45 -3 45 -20 0 -17 -7 -20 -45 -20 -38 0 -45 -3 -45
-19 0 -17 8 -20 47 -23 36 -2 49 -7 51 -20 3 -16 -5 -18 -67 -18 l-71 0 0 100
0 100 70 0 c63 0 70 -2 70 -20z m109 -42 l41 -63 0 63 c0 55 2 62 20 62 19 0
20 -7 20 -100 0 -91 -2 -100 -19 -100 -11 0 -33 22 -57 58 l-39 57 -3 -57 c-3
-50 -6 -58 -22 -58 -19 0 -20 8 -20 100 0 91 2 100 19 100 12 0 33 -23 60 -62z
m261 42 c0 -17 -7 -20 -50 -20 -43 0 -50 -3 -50 -19 0 -17 8 -20 48 -23 34 -2
47 -7 47 -18 0 -11 -13 -16 -47 -18 -39 -3 -48 -7 -48 -22 0 -15 9 -19 47 -22
36 -2 49 -7 51 -20 3 -16 -5 -18 -67 -18 l-71 0 0 100 0 100 70 0 c63 0 70 -2
70 -20z m176 -5 c19 -25 18 -60 -3 -80 -15 -16 -15 -19 2 -51 10 -19 21 -34
24 -34 3 0 22 42 41 93 31 81 38 92 60 92 21 0 28 -10 57 -84 18 -47 33 -91
33 -98 0 -21 -38 -15 -45 7 -5 15 -15 20 -45 20 -30 0 -40 -5 -45 -20 -5 -16
-15 -20 -56 -20 -47 0 -50 2 -66 35 -10 21 -24 35 -35 35 -14 0 -18 -8 -18
-35 0 -31 -3 -35 -25 -35 -25 0 -25 0 -25 93 0 52 3 97 8 101 4 4 33 6 66 4
42 -3 62 -10 72 -23z m364 5 c0 -16 -7 -20 -30 -20 l-30 0 0 -80 c0 -73 -2
-80 -20 -80 -18 0 -20 7 -20 80 l0 80 -30 0 c-23 0 -30 4 -30 20 0 18 7 20 80
20 73 0 80 -2 80 -20z m165 0 c0 -11 -13 -16 -47 -18 -39 -3 -48 -7 -48 -22 0
-15 9 -19 42 -22 31 -2 44 -8 46 -20 3 -15 -4 -18 -42 -18 -39 0 -46 -3 -46
-19 0 -17 8 -20 47 -23 36 -2 49 -7 51 -20 3 -16 -6 -18 -72 -18 l-76 0 0 93
c0 52 3 97 7 101 4 4 37 6 73 4 50 -2 65 -6 65 -18z m241 -5 c19 -26 18 -60
-3 -81 -16 -16 -16 -19 5 -55 l23 -39 -26 0 c-19 0 -29 9 -42 35 -10 21 -24
35 -35 35 -14 0 -18 -8 -18 -35 0 -31 -3 -35 -25 -35 -25 0 -25 0 -25 93 0 52
3 97 8 101 4 4 33 6 66 4 42 -3 62 -10 72 -23z m184 5 c0 -17 -7 -20 -45 -20
-38 0 -45 -3 -45 -19 0 -16 8 -20 42 -23 31 -2 44 -8 46 -20 3 -15 -4 -18 -42
-18 -39 0 -46 -3 -46 -20 0 -16 7 -20 34 -20 44 0 66 -9 66 -26 0 -11 -18 -14
-75 -14 l-75 0 0 100 0 100 70 0 c63 0 70 -2 70 -20z m158 4 c12 -8 22 -22 22
-30 0 -16 -36 -19 -45 -4 -3 6 -17 10 -31 10 -41 0 -25 -30 26 -49 52 -19 75
-60 49 -86 -41 -41 -141 -32 -147 13 -4 26 21 30 45 6 19 -19 57 -15 61 8 2
11 -8 20 -35 28 -72 23 -92 61 -53 100 24 24 77 26 108 4z m102 -58 c0 -79 13
-103 48 -91 24 7 32 33 32 108 0 50 2 57 20 57 18 0 20 -7 20 -76 0 -87 -8
-108 -48 -122 -72 -25 -112 9 -119 102 -7 76 -1 96 27 96 18 0 20 -6 20 -74z
m223 22 l29 -51 26 49 c19 33 33 49 47 49 19 0 20 -7 20 -95 0 -91 -1 -95 -22
-98 -21 -3 -23 0 -23 50 l0 53 -20 -32 c-11 -18 -24 -33 -30 -33 -5 0 -18 17
-29 38 l-20 37 -1 -57 c0 -51 -2 -58 -20 -58 -19 0 -20 7 -20 100 0 89 2 100
18 100 10 0 28 -20 45 -52z m297 32 c0 -17 -7 -20 -45 -20 -38 0 -45 -3 -45
-19 0 -16 8 -20 42 -23 31 -2 44 -8 46 -20 3 -15 -4 -18 -42 -18 -39 0 -46 -3
-46 -20 0 -16 7 -20 34 -20 44 0 66 -9 66 -26 0 -11 -18 -14 -75 -14 l-75 0 0
100 0 100 70 0 c63 0 70 -2 70 -20z m-2826 -61 c-17 -19 -17 -19 -36 1 -17 18
-17 21 -1 39 17 20 17 20 36 0 18 -19 18 -21 1 -40z"/>
<path d="M4670 1525 c0 -21 5 -25 29 -25 29 0 42 14 34 38 -3 6 -18 12 -34 12
-24 0 -29 -4 -29 -25z"/>
<path d="M4873 1495 c-11 -34 -11 -35 17 -35 28 0 28 1 17 35 -6 19 -13 35
-17 35 -4 0 -11 -16 -17 -35z"/>
<path d="M5440 1525 c0 -21 5 -25 29 -25 29 0 42 14 34 38 -3 6 -18 12 -34 12
-24 0 -29 -4 -29 -25z"/>
<path d="M11540 2046 c0 -9 7 -16 16 -16 9 0 14 5 12 12 -6 18 -28 21 -28 4z"/>
<path d="M11790 1955 c0 -87 3 -105 15 -105 9 0 15 9 15 24 0 39 20 42 47 7
13 -17 31 -31 39 -31 20 0 17 11 -16 50 l-29 35 32 33 c28 29 29 32 10 32 -12
0 -35 -16 -52 -35 l-31 -36 0 66 c0 51 -3 65 -15 65 -12 0 -15 -18 -15 -105z"/>
<path d="M12210 2026 c0 -33 -1 -35 -32 -30 -18 3 -39 1 -46 -4 -19 -13 -30
-64 -20 -99 10 -37 48 -54 79 -35 12 8 20 8 24 2 18 -28 25 0 25 95 0 87 -3
105 -15 105 -10 0 -15 -10 -15 -34z m-11 -60 c17 -20 10 -77 -11 -89 -24 -16
-48 8 -48 47 0 49 34 73 59 42z"/>
<path d="M12290 2046 c0 -9 7 -16 16 -16 9 0 14 5 12 12 -6 18 -28 21 -28 4z"/>
<path d="M11390 1950 l0 -100 55 0 c42 0 55 3 55 15 0 11 -11 15 -40 15 l-40
0 0 85 c0 69 -3 85 -15 85 -12 0 -15 -18 -15 -100z"/>
<path d="M11540 1925 c0 -60 3 -75 15 -75 12 0 15 15 15 75 0 60 -3 75 -15 75
-12 0 -15 -15 -15 -75z"/>
<path d="M11610 1925 c0 -57 3 -75 14 -75 9 0 15 18 19 57 6 56 19 75 47 70
11 -2 16 -19 18 -65 3 -54 6 -62 22 -62 17 0 20 7 20 48 0 63 -18 96 -53 100
-16 2 -35 -2 -43 -9 -10 -8 -14 -8 -14 0 0 6 -7 11 -15 11 -12 0 -15 -15 -15
-75z"/>
<path d="M11974 1992 c-16 -10 -34 -48 -34 -70 0 -11 10 -31 21 -46 18 -23 28
-27 62 -24 23 2 42 9 45 17 3 10 -3 11 -27 6 -34 -7 -61 7 -61 31 0 10 13 14
45 14 41 0 45 2 45 24 0 14 -7 32 -16 40 -16 17 -61 21 -80 8z m64 -34 c3 -14
-3 -18 -27 -18 -29 0 -41 17 -24 34 13 13 48 1 51 -16z"/>
<path d="M12290 1925 c0 -60 3 -75 15 -75 12 0 15 15 15 75 0 60 -3 75 -15 75
-12 0 -15 -15 -15 -75z"/>
<path d="M12370 1925 c0 -60 3 -75 15 -75 11 0 15 13 15 54 0 60 19 88 48 69
12 -7 18 -27 20 -67 2 -41 7 -56 17 -56 18 0 21 100 5 131 -12 22 -68 27 -88
7 -9 -9 -12 -9 -12 0 0 7 -4 12 -10 12 -6 0 -10 -32 -10 -75z"/>
<path d="M12611 1198 c-5 -13 -30 -72 -55 -132 -25 -60 -46 -113 -46 -117 0
-21 22 -6 35 24 98 233 103 247 89 247 -8 0 -18 -10 -23 -22z"/>
<path d="M12689 1173 c-86 -199 -99 -238 -78 -231 9 3 119 252 119 271 0 4 -5
7 -10 7 -6 0 -20 -21 -31 -47z"/>
<path d="M11644 1187 c-10 -28 1 -210 14 -215 8 -2 12 10 12 42 0 69 14 96 49
96 35 0 41 -13 41 -86 0 -41 4 -54 15 -54 12 0 15 14 15 65 0 94 -30 121 -102
90 -16 -6 -18 -1 -18 34 0 39 -15 56 -26 28z"/>
<path d="M11850 1170 c0 -20 -5 -30 -15 -30 -8 0 -15 -7 -15 -15 0 -8 7 -15
15 -15 11 0 15 -13 15 -53 0 -59 19 -87 58 -87 29 0 28 28 0 32 -20 3 -23 10
-26 56 -3 50 -2 52 23 52 32 0 29 23 -3 28 -17 3 -22 10 -22 33 0 19 -5 29
-15 29 -10 0 -15 -10 -15 -30z"/>
<path d="M11980 1171 c0 -20 -5 -31 -14 -31 -24 0 -30 -21 -7 -27 18 -5 21
-13 21 -64 0 -53 3 -61 24 -71 27 -12 61 -4 51 12 -3 5 -15 10 -26 10 -16 0
-19 7 -19 55 0 48 2 55 20 55 11 0 20 7 20 15 0 8 -9 15 -19 15 -14 0 -21 8
-23 27 -4 39 -28 42 -28 4z"/>
<path d="M14240 1186 c0 -9 7 -16 16 -16 17 0 14 22 -4 28 -7 2 -12 -3 -12
-12z"/>
<path d="M14170 1080 c0 -67 4 -110 10 -110 6 0 10 43 10 110 0 67 -4 110 -10
110 -6 0 -10 -43 -10 -110z"/>
<path d="M14520 1080 c0 -67 4 -110 10 -110 6 0 10 16 10 35 0 19 3 35 7 35 4
0 24 -17 45 -37 21 -20 41 -33 45 -29 5 4 -12 26 -37 48 l-44 39 39 34 c25 22
34 34 24 35 -8 0 -26 -11 -39 -25 -13 -14 -27 -25 -32 -25 -4 0 -8 25 -8 55 0
30 -4 55 -10 55 -6 0 -10 -43 -10 -110z"/>
<path d="M14960 1157 c0 -33 0 -33 -47 -33 -42 1 -49 -2 -61 -27 -32 -66 18
-143 78 -120 20 8 31 8 39 0 8 -8 11 21 11 101 0 68 -4 112 -10 112 -5 0 -10
-15 -10 -33z m-8 -61 c12 -18 9 -81 -4 -94 -7 -7 -21 -12 -33 -12 -32 0 -45
20 -45 67 0 29 5 45 18 52 19 11 53 4 64 -13z"/>
<path d="M15042 1083 c2 -74 7 -108 16 -111 9 -3 12 23 12 107 0 93 -2 111
-15 111 -13 0 -15 -16 -13 -107z"/>
<path d="M12090 1025 c0 -96 3 -115 15 -115 10 0 15 10 15 34 0 34 1 35 35 29
43 -7 72 15 80 61 13 67 -37 122 -90 98 -15 -7 -27 -8 -30 -2 -18 29 -25 -1
-25 -105z m110 59 c21 -54 -17 -107 -60 -84 -23 12 -28 78 -8 98 21 21 58 14
68 -14z"/>
<path d="M12292 1124 c-24 -17 -29 -46 -9 -61 6 -6 29 -16 50 -22 20 -7 37
-19 37 -26 0 -20 -39 -29 -66 -14 -30 16 -46 2 -20 -17 42 -30 116 -11 116 30
0 29 -17 44 -59 52 -38 8 -48 21 -29 40 12 12 20 13 41 3 33 -15 49 -3 23 17
-26 18 -56 18 -84 -2z"/>
<path d="M14715 1130 c-37 -14 -49 -39 -46 -97 1 -30 35 -63 65 -63 28 0 82
39 54 40 -9 0 -20 -4 -23 -10 -9 -14 -48 -13 -63 2 -7 7 -12 20 -12 30 0 14
11 18 58 20 l58 3 -8 32 c-9 35 -49 55 -83 43z m46 -20 c10 -6 19 -20 19 -30
0 -17 -7 -20 -45 -20 -38 0 -45 3 -45 20 0 10 8 24 18 29 22 13 29 13 53 1z"/>
<path d="M15440 1130 c-77 -19 -54 -160 26 -160 26 0 72 35 62 46 -5 4 -16 0
-26 -9 -22 -20 -53 -22 -70 -5 -7 7 -12 31 -12 55 0 32 5 45 19 53 28 15 38
13 61 -12 21 -23 34 -21 24 5 -7 21 -52 35 -84 27z"/>
<path d="M15620 1130 c-51 -12 -66 -95 -25 -135 51 -52 115 -19 115 58 0 60
-36 91 -90 77z m54 -26 c31 -31 14 -114 -24 -114 -35 0 -49 12 -56 46 -12 63
41 108 80 68z"/>
<path d="M15905 1124 c-19 -10 -32 -11 -40 -4 -6 5 -33 9 -58 8 l-47 -2 0 -78
c0 -45 4 -78 10 -78 6 0 10 24 10 54 0 66 27 108 57 90 13 -8 19 -28 23 -73 6
-77 24 -80 28 -4 2 40 8 62 19 71 39 28 63 -2 63 -79 0 -33 4 -59 10 -59 15 0
12 123 -2 142 -20 24 -43 28 -73 12z"/>
<path d="M13321 1118 c1 -29 45 -143 54 -143 5 0 19 27 31 59 23 65 24 65 49
-12 9 -29 22 -51 28 -49 7 2 20 30 30 63 9 32 20 67 23 77 3 9 1 17 -5 17 -6
0 -19 -28 -29 -61 -21 -68 -22 -68 -47 9 -9 29 -22 51 -28 49 -6 -2 -19 -27
-29 -57 -10 -29 -20 -55 -22 -57 -3 -3 -12 23 -22 56 -9 34 -21 61 -25 61 -5
0 -9 -6 -8 -12z"/>
<path d="M13596 1054 c13 -42 26 -79 29 -82 9 -10 22 11 40 66 9 29 20 50 24
47 3 -3 13 -29 21 -57 9 -28 21 -53 27 -55 11 -4 66 147 58 156 -10 10 -24
-14 -35 -59 -7 -28 -15 -52 -20 -55 -4 -2 -15 23 -25 55 -10 33 -24 60 -30 60
-7 0 -20 -27 -29 -60 -10 -33 -21 -58 -25 -56 -4 3 -14 30 -21 61 -7 30 -19
55 -26 55 -8 0 -5 -22 12 -76z"/>
<path d="M13836 1103 c16 -62 41 -127 52 -131 6 -2 18 23 28 57 9 34 20 61 23
61 4 0 15 -25 26 -56 11 -31 25 -56 30 -56 6 0 20 29 32 64 24 71 27 88 15 88
-5 0 -17 -27 -27 -60 -10 -33 -21 -58 -24 -54 -3 3 -13 28 -21 56 -9 28 -21
53 -27 55 -6 2 -19 -20 -28 -49 -10 -29 -21 -57 -25 -61 -3 -4 -14 20 -23 53
-10 33 -22 60 -27 60 -6 0 -8 -11 -4 -27z"/>
<path d="M14240 1050 c0 -47 4 -80 10 -80 6 0 10 33 10 80 0 47 -4 80 -10 80
-6 0 -10 -33 -10 -80z"/>
<path d="M14320 1050 c0 -47 4 -80 10 -80 6 0 10 25 10 55 0 42 5 60 20 75 43
43 80 7 80 -77 0 -29 5 -53 10 -53 16 0 12 113 -6 138 -17 25 -71 31 -92 10
-9 -9 -12 -9 -12 0 0 7 -4 12 -10 12 -6 0 -10 -33 -10 -80z"/>
<path d="M15130 1050 c0 -47 4 -80 10 -80 6 0 10 26 10 58 0 67 22 99 60 87
26 -8 40 -43 40 -101 0 -24 5 -44 10 -44 14 0 12 100 -3 130 -14 28 -68 40
-93 19 -10 -8 -14 -8 -14 0 0 6 -4 11 -10 11 -6 0 -10 -33 -10 -80z"/>
<path d="M12440 1099 c0 -14 5 -19 17 -17 26 5 29 38 4 38 -15 0 -21 -6 -21
-21z"/>
<path d="M12440 991 c0 -15 6 -21 21 -21 25 0 22 33 -4 38 -12 2 -17 -3 -17
-17z"/>
<path d="M14080 985 c0 -8 7 -15 15 -15 8 0 15 7 15 15 0 8 -7 15 -15 15 -8 0
-15 -7 -15 -15z"/>
<path d="M15320 985 c0 -8 7 -15 15 -15 8 0 15 7 15 15 0 8 -7 15 -15 15 -8 0
-15 -7 -15 -15z"/>
</g>
</svg>
